<?xml version="1.0" encoding="utf-8"?>
<!-- Generator: Adobe Illustrator 25.0.0, SVG Export Plug-In . SVG Version: 6.00 Build 0)  -->
<svg version="1.1" id="Capa_1" xmlns="http://www.w3.org/2000/svg" xmlns:xlink="http://www.w3.org/1999/xlink" x="0px" y="0px"
	 viewBox="0 0 400 400" style="enable-background:new 0 0 400 400;" xml:space="preserve">
<style type="text/css">
	.st0{fill:#FFF;}
</style>
<g>
	<g>
		<g>
			<g>
				<path class="st0" d="M230.1,285.6H96.5c-14.4,0-26.1-11.7-26.1-26.1V141.1c0-14.4,11.7-26.1,26.1-26.1h207.1
					c14.4,0,26.1,11.7,26.1,26.1v70.6c0,3.7-3,6.7-6.7,6.7s-6.7-3-6.7-6.7v-70.6c0-7-5.7-12.6-12.6-12.6H96.5
					c-7,0-12.6,5.7-12.6,12.6v118.5c0,7,5.7,12.6,12.6,12.6h133.6c3.7,0,6.7,3,6.7,6.7C236.8,282.6,233.8,285.6,230.1,285.6z"/>
			</g>
			<g>
				<path class="st0" d="M119.4,263.9h-13.8c-3.7,0-6.7-3-6.7-6.7c0-3.7,3-6.7,6.7-6.7h13.8c3.7,0,6.7,3,6.7,6.7
					C126.1,260.9,123.1,263.9,119.4,263.9z"/>
			</g>
			<g>
				<rect x="77.1" y="160.4" class="st0" width="245.8" height="25.9"/>
			</g>
		</g>
	</g>
	<path class="st0" d="M285.3,209.2c-24.6,0-44.6,20-44.6,44.6s20,44.6,44.6,44.6s44.6-20,44.6-44.6C330,229.3,310,209.2,285.3,209.2
		z M285.3,288.6c-19.2,0-34.7-15.6-34.7-34.7c0-19.2,15.6-34.7,34.7-34.7c19.2,0,34.7,15.6,34.7,34.7
		C320.1,273,304.5,288.6,285.3,288.6z"/>
	<g>
		<g>
			<path class="st0" d="M272.8,245.9c0-1.1,0.1-2.3,0.4-3.4c0.3-1.1,0.8-2.2,1.5-3.2s1.7-1.9,2.9-2.6c1.2-0.8,2.7-1.3,4.4-1.7
				l-0.1-4.8c0-0.3,0.1-0.5,0.3-0.7c0.2-0.2,0.4-0.3,0.7-0.3l4.9-0.1c0.3,0,0.5,0.1,0.8,0.3c0.2,0.2,0.3,0.4,0.3,0.7l0.1,4.5
				c1.4,0,2.6,0.1,3.7,0.3c1.1,0.1,2.2,0.3,3.2,0.5c0.3,0.1,0.5,0.2,0.7,0.4s0.3,0.4,0.3,0.7l0.1,3.8c0,0.3-0.1,0.5-0.3,0.7
				c-0.2,0.2-0.4,0.3-0.7,0.3h-0.1c-0.5-0.1-1.2-0.1-2.1-0.1s-1.8-0.1-2.7-0.1c-0.9,0-1.8-0.1-2.6-0.1c-0.8,0-1.5,0-2,0
				c-2.4,0.1-4,0.5-4.8,1.3s-1.2,2-1.2,3.6c0,0.5,0.1,1,0.2,1.4c0.2,0.4,0.4,0.8,0.7,1.2c0.3,0.4,0.8,0.8,1.4,1.2s1.3,0.8,2.2,1.4
				l7.1,4c1.3,0.7,2.3,1.4,3.1,2.2c0.8,0.7,1.5,1.5,2,2.3c0.5,0.8,0.8,1.6,1.1,2.5c0.2,0.9,0.3,1.8,0.4,2.7c0,1.2-0.1,2.4-0.4,3.5
				s-0.8,2-1.5,2.9s-1.6,1.6-2.7,2.2s-2.5,1.1-4.2,1.4l0.1,4.5c0,0.3-0.1,0.5-0.3,0.7c-0.2,0.2-0.5,0.3-0.7,0.3l-4.9,0.1
				c-0.3,0-0.5-0.1-0.7-0.3c-0.2-0.2-0.3-0.4-0.3-0.7l-0.1-4.2c-1.5,0-2.9-0.1-4.3-0.2s-2.5-0.3-3.2-0.4c-0.3-0.1-0.5-0.2-0.7-0.3
				c-0.2-0.2-0.3-0.4-0.3-0.7l-0.1-3.9c0-0.3,0.1-0.5,0.2-0.7c0.2-0.2,0.4-0.3,0.7-0.3h0.1c1.8,0.1,3.5,0.2,5.3,0.3
				c1.7,0,3.5,0,5.2,0c2,0,3.4-0.4,4.3-1.1s1.3-1.6,1.2-2.8c0-0.4-0.1-0.8-0.2-1.2c-0.1-0.4-0.4-0.7-0.7-1.1
				c-0.3-0.4-0.8-0.7-1.4-1.1c-0.6-0.4-1.3-0.8-2.1-1.2l-6.4-3.4c-1.5-0.8-2.7-1.6-3.7-2.4c-1-0.8-1.8-1.6-2.3-2.5
				c-0.6-0.9-1-1.8-1.2-2.7C273,248,272.8,247,272.8,245.9L272.8,245.9z"/>
		</g>
	</g>
	<g>
		<path class="st0" d="M355,258.5c-3.2,0-5.8-2.6-5.8-5.8v-80.3c0-3.2,2.6-5.8,5.8-5.8c3.2,0,5.8,2.6,5.8,5.8v80.3
			C360.8,255.9,358.2,258.5,355,258.5z"/>
	</g>
	<g>
		<path class="st0" d="M339.7,193.5c-1.4,0-2.8-0.5-4-1.6c-2.3-2.2-2.5-5.9-0.3-8.2l14.8-15.8c1.1-1.2,2.6-1.8,4.1-1.8
			c1.6,0,3.1,0.6,4.2,1.7l15.8,15.8c2.3,2.3,2.3,5.9,0,8.2s-5.9,2.3-8.2,0l-11.6-11.6l-10.7,11.5
			C342.8,192.9,341.3,193.5,339.7,193.5z"/>
	</g>
</g>
</svg>
