<?xml version="1.0" encoding="utf-8"?>
<!-- Generator: Adobe Illustrator 25.0.0, SVG Export Plug-In . SVG Version: 6.00 Build 0)  -->
<svg version="1.1" id="Capa_1" xmlns="http://www.w3.org/2000/svg" xmlns:xlink="http://www.w3.org/1999/xlink" x="0px" y="0px"
	 viewBox="0 0 400 400" style="enable-background:new 0 0 400 400;" xml:space="preserve">
<style type="text/css">
	.st0{fill:#FFF;}
</style>
<g>
	<g>
		<g>
			<g>
				<path class="st0" d="M229.8,286.2H96.1c-14.4,0-26.1-11.7-26.1-26.1V141.5c0-14.4,11.7-26.1,26.1-26.1h207.4
					c14.4,0,26.1,11.7,26.1,26.1v70.7c0,3.7-3,6.7-6.7,6.7s-6.7-3-6.7-6.7v-70.7c0-7-5.7-12.7-12.7-12.7H96.1
					c-7,0-12.7,5.7-12.7,12.7v118.6c0,7,5.7,12.7,12.7,12.7h133.8c3.7,0,6.7,3,6.7,6.7C236.5,283.2,233.5,286.2,229.8,286.2z"/>
			</g>
			<g>
				<path class="st0" d="M119,264.5h-13.8c-3.7,0-6.7-3-6.7-6.7c0-3.7,3-6.7,6.7-6.7H119c3.7,0,6.7,3,6.7,6.7
					C125.7,261.5,122.7,264.5,119,264.5z"/>
			</g>
			<g>
				<rect x="76.7" y="160.8" class="st0" width="246.2" height="25.9"/>
			</g>
		</g>
	</g>
	<g>
		<g>
			<path class="st0" d="M328.2,304.6c-2,0-4-0.8-5.5-2.3l-16.2-16.2c-3.1-3.1-3.1-8,0-11.1s8-3.1,11.1,0l16.2,16.2
				c3.1,3.1,3.1,8,0,11.1C332.2,303.8,330.2,304.6,328.2,304.6z"/>
		</g>
		<g>
			
				<rect x="297.1" y="265.8" transform="matrix(0.7071 -0.7071 0.7071 0.7071 -102.7979 292.5787)" class="st0" width="9.3" height="9.1"/>
		</g>
		<g>
			<path class="st0" d="M273,279.2c-21,0-38.1-17.1-38.1-38.1S252,203,273,203s38.1,17.1,38.1,38.1S294,279.2,273,279.2z M273,212.3
				c-15.9,0-28.8,12.9-28.8,28.8s12.9,28.8,28.8,28.8s28.8-12.9,28.8-28.8S288.8,212.3,273,212.3z"/>
		</g>
		<g>
			<path class="st0" d="M250.3,242.4c-0.9,0-1.7-0.8-1.7-1.7c0-13.2,10.7-23.9,23.9-23.9c0.9,0,1.7,0.8,1.7,1.7s-0.8,1.7-1.7,1.7
				c-11.3,0-20.5,9.2-20.5,20.5C252,241.6,251.3,242.4,250.3,242.4z"/>
		</g>
	</g>
</g>
</svg>
