<?xml version="1.0" encoding="utf-8"?>
<!-- Generator: Adobe Illustrator 25.0.0, SVG Export Plug-In . SVG Version: 6.00 Build 0)  -->
<svg version="1.1" id="Capa_1" xmlns="http://www.w3.org/2000/svg" xmlns:xlink="http://www.w3.org/1999/xlink" x="0px" y="0px"
	 viewBox="0 0 400 400" style="enable-background:new 0 0 400 400;" xml:space="preserve">
<style type="text/css">
	.st0{fill:#FFF;}
</style>
<g>
	<g>
		<path class="st0" d="M110,205.2c-2.9,0-5.2-2.3-5.2-5.2c0-52.4,42.6-95,95-95c16.8,0,33.4,4.5,47.8,12.9
			c14,8.2,25.8,19.9,34.1,33.9c1.5,2.5,0.6,5.7-1.9,7.2c-2.5,1.5-5.7,0.6-7.2-1.9c-15.2-25.7-43.1-41.6-72.9-41.6
			c-46.6,0-84.5,37.9-84.5,84.5C115.3,202.9,112.9,205.2,110,205.2z"/>
	</g>
	<g>
		<path class="st0" d="M199.8,295c-33.7,0-65.2-18.1-82.2-47.3c-1.5-2.5-0.6-5.7,1.9-7.2c2.5-1.5,5.7-0.6,7.2,1.9
			c15.1,26,43.1,42.1,73.1,42.1c46.6,0,84.5-37.9,84.5-84.5c0-2.9,2.3-5.2,5.2-5.2s5.2,2.3,5.2,5.2C294.9,252.4,252.2,295,199.8,295
			z"/>
	</g>
	<g>
		<g>
			<g>
				<path class="st0" d="M262.9,258.2c-0.4-2-1-3.8-1.8-5.5c-7.2-15.1-21.2-20.7-31.5-24.8c-4.3-1.7-8.3-3.3-10.5-5.1l-0.1-0.5
					c9-5.7,19.4-16.6,19.4-36.8c0-24.4-15.6-41.4-38-41.4c-22.4,0-38,17-38,41.4c0,16,7,29.1,19.7,37c-2.1,1.9-6.3,3.6-10.8,5.4
					c-10.3,4.1-24.4,9.7-31.7,25.1c-0.8,1.6-1.3,3.3-1.7,5.1l-0.1,0.5l0.3,0.4c2.9,3.4,6.1,6.5,9.4,9.3l3.2,2.7l-1.6-3.9
					c-1.3-3.2-1.3-6.5,0.1-9.5c5.4-11.6,16.3-15.9,25.9-19.7c6.8-2.7,12.7-5,16.2-9.7l0.6-0.8l2.1-10.6l-3.6-1.8
					c-8-4-17.4-12.4-17.4-29.4c0-18.1,11.2-30.7,27.3-30.7c16.1,0,27.3,12.6,27.3,30.7c0,13.3-5.9,23.5-17.2,29.3l-3.5,1.8l2.1,11.2
					l0.9,1.1c3.6,4.1,9.1,6.4,15.6,8.9c9.5,3.8,20.3,8.1,25.7,19.4c1.5,3.1,1.5,6.6,0.1,9.9l-1.7,3.9l3.3-2.7
					c3.4-2.8,6.6-5.9,9.5-9.3l0.3-0.4L262.9,258.2z"/>
			</g>
		</g>
		<g>
			<path class="st0" d="M311.2,214.4c-1.2,0-2.4-0.4-3.3-1.3l-19-17.8l-18.3,17.7c-1.9,1.9-5,1.8-6.9-0.1c-1.9-1.9-1.8-5,0.1-6.9
				l21.7-21c1.9-1.8,4.8-1.8,6.7-0.1l22.4,21c2,1.8,2.1,4.9,0.2,6.9C313.8,213.9,312.5,214.4,311.2,214.4z"/>
		</g>
	</g>
	<g>
		<path class="st0" d="M111.1,213.7c-1.2,0-2.4-0.4-3.3-1.3l-22.4-21c-2-1.8-2.1-4.9-0.2-6.9c1.8-2,4.9-2.1,6.9-0.2l19,17.8
			l18.3-17.7c1.9-1.9,5-1.8,6.9,0.1c1.9,1.9,1.8,5-0.1,6.9l-21.7,21C113.6,213.2,112.3,213.7,111.1,213.7z"/>
	</g>
</g>
</svg>
