<svg xmlns="http://www.w3.org/2000/svg" viewBox="0 0 256 194" width="256" height="194">
	<style>
		tspan { white-space:pre }
		.shp0 { fill: #ffffff } 
	</style>
	<g id="Layer">
		<g id="Layer">
			<g id="Layer">
				<path id="Layer" class="shp0" d="M251.5 72.4C249.3 70.8 246.2 71.2 244.6 73.4L237.7 82.6C231.1 37 191.8 1.9 144.4 1.9C141.7 1.9 139.4 4.1 139.4 6.9C139.4 9.6 141.6 11.9 144.4 11.9C190.9 11.9 228.7 49.7 228.7 96.2C228.7 98.3 230.1 100.2 232.1 100.9C232.6 101.1 233.1 101.2 233.7 101.2C235.2 101.2 236.7 100.5 237.7 99.2L252.6 79.4C254.1 77.1 253.7 74 251.5 72.4Z" />
			</g>
		</g>
		<g id="Layer">
			<g id="Layer">
				<path id="Layer" class="shp0" d="M111.7 182.1C65.2 182.1 27.4 144.3 27.4 97.8C27.4 95.7 26 93.8 24 93.1C22 92.4 19.7 93.1 18.5 94.8L3.6 114.6C2 116.8 2.4 119.9 4.6 121.5C6.8 123.2 9.9 122.7 11.5 120.5L18.4 111.3C25 156.9 64.3 192 111.7 192C114.4 192 116.7 189.8 116.7 187C116.6 184.4 114.4 182.1 111.7 182.1Z" />
			</g>
		</g>
		<g id="Layer">
			<g id="Layer">
				<g id="Layer">
					<path id="Layer" fill-rule="evenodd" class="shp0" d="M101.4 119.7C101.4 120.5 101 120.9 100.2 120.9L86.8 120.9C86.4 120.9 86.1 120.8 85.8 120.5C85.5 120.2 85.4 119.9 85.3 119.5L83.1 108.8L69.4 108.8L67.2 119.5C67.1 119.9 66.9 120.3 66.7 120.5C66.4 120.8 66.1 120.9 65.7 120.9L52.4 120.9C51.5 120.9 51.1 120.5 51.1 119.7C51.1 119.6 51.1 119.5 51.1 119.5C51.1 119.5 51.1 119.4 51.1 119.3L61.4 72.2C61.8 70.3 62.5 68.8 63.4 67.6C64.3 66.4 65.4 65.5 66.7 64.8C68 64.1 69.4 63.7 71 63.5C72.6 63.3 74.3 63.2 76.1 63.2C77.9 63.2 79.7 63.3 81.3 63.5C82.9 63.7 84.3 64.2 85.6 64.8C86.9 65.5 88 66.4 88.9 67.6C89.8 68.8 90.5 70.4 90.9 72.2L101.2 119.3C101.2 119.4 101.2 119.5 101.2 119.5C101.4 119.6 101.4 119.6 101.4 119.7ZM77.1 76.9C77 76.5 76.9 76.3 76.9 76.1C76.8 75.9 76.6 75.8 76.3 75.8C75.9 75.8 75.7 75.9 75.7 76.1C75.6 76.3 75.6 76.5 75.5 76.9L71.7 96.4L80.9 96.4L77.1 76.9Z" />
				</g>
			</g>
			<g id="Layer">
				<g id="Layer">
					<path id="Layer" class="shp0" d="M142.3 119.6C142 119.8 141.6 120 141 120.2C140 120.6 138.5 120.9 136.7 121.2C134.9 121.5 132.7 121.6 130.2 121.6C126.7 121.6 123.4 121.1 120.6 120.1C117.7 119.1 115.2 117.6 113.1 115.5C111 113.4 109.4 110.8 108.3 107.6C107.1 104.4 106.6 100.6 106.6 96.2L106.6 88.3C106.6 83.9 107.2 80.1 108.3 76.9C109.5 73.7 111.1 71.1 113.1 69C115.2 66.9 117.7 65.4 120.6 64.4C123.5 63.4 126.7 62.9 130.2 62.9C132.7 62.9 134.8 63 136.7 63.3C138.5 63.6 140 63.9 141 64.3C141.6 64.5 142.1 64.7 142.3 64.9C142.6 65.1 142.7 65.5 142.7 66L142.7 75.9C142.7 76.9 142.2 77.4 141.3 77.4L141 77.4C139.4 77.2 137.8 77.1 136.1 76.9C134.4 76.7 132.5 76.7 130.3 76.7C129.3 76.7 128.3 76.8 127.3 77.1C126.4 77.4 125.5 77.9 124.8 78.8C124.1 79.6 123.5 80.8 123 82.3C122.6 83.8 122.3 85.8 122.3 88.2L122.3 96.1C122.3 98.5 122.5 100.4 123 102C123.4 103.5 124 104.7 124.7 105.5C125.4 106.3 126.2 106.9 127.2 107.2C128.1 107.5 129.2 107.7 130.2 107.7C132.4 107.7 134.4 107.6 136 107.5C137.7 107.3 139.3 107.2 140.9 107L141.1 107C142 107 142.5 107.5 142.5 108.5L142.5 118.4C142.6 119 142.5 119.4 142.3 119.6Z" />
				</g>
			</g>
			<g id="Layer">
				<g id="Layer">
					<path id="Layer" class="shp0" d="M197.5 120.5C197.2 120.8 196.8 121 196.4 121L183.8 121C183.4 121 183 120.8 182.7 120.5C182.4 120.2 182.2 119.8 182.2 119.4L182.2 98.5L166.2 98.5L166.2 119.4C166.2 119.8 166 120.2 165.7 120.5C165.4 120.8 165 121 164.6 121L152.1 121C151.7 121 151.3 120.8 151 120.5C150.7 120.2 150.5 119.8 150.5 119.4L150.5 65.3C150.5 64.9 150.7 64.5 151 64.3C151.3 64 151.7 63.9 152.1 63.9L164.6 63.9C165 63.9 165.4 64 165.7 64.3C166 64.6 166.2 64.9 166.2 65.3L166.2 85L182.2 85L182.2 65.3C182.2 64.9 182.4 64.5 182.7 64.3C183 64 183.4 63.9 183.8 63.9L196.4 63.9C196.8 63.9 197.2 64 197.5 64.3C197.8 64.6 198 64.9 198 65.3L198 119.4C197.9 119.8 197.8 120.1 197.5 120.5Z" />
				</g>
			</g>
		</g>
	</g>
</svg>