<?xml version="1.0" encoding="utf-8"?>
<!-- Generator: Adobe Illustrator 25.0.0, SVG Export Plug-In . SVG Version: 6.00 Build 0)  -->
<svg version="1.1" id="Capa_1" xmlns="http://www.w3.org/2000/svg" xmlns:xlink="http://www.w3.org/1999/xlink" x="0px" y="0px"
	 viewBox="0 0 400 400" style="enable-background:new 0 0 400 400;" xml:space="preserve">
<style type="text/css">
	.st0{fill:#FFF;}
</style>
<g>
	<g>
		<g>
			<path class="st0" d="M323.5,175.4c-2.2-1.6-5.3-1.2-6.9,1l-6.9,9.2c-6.6-45.6-45.9-80.7-93.3-80.7c-2.7,0-5,2.2-5,5
				c0,2.7,2.2,5,5,5c46.5,0,84.3,37.8,84.3,84.3c0,2.1,1.4,4,3.4,4.7c0.5,0.2,1,0.3,1.6,0.3c1.5,0,3-0.7,4-2l14.9-19.8
				C326.1,180.1,325.7,177,323.5,175.4z"/>
		</g>
	</g>
	<g>
		<g>
			<path class="st0" d="M183.7,285.1c-46.5,0-84.3-37.8-84.3-84.3c0-2.1-1.4-4-3.4-4.7c-2-0.7-4.3,0-5.5,1.7l-14.9,19.8
				c-1.6,2.2-1.2,5.3,1,6.9c2.2,1.7,5.3,1.2,6.9-1l6.9-9.2c6.6,45.6,45.9,80.7,93.3,80.7c2.7,0,5-2.2,5-5
				C188.6,287.4,186.4,285.1,183.7,285.1z"/>
		</g>
	</g>
	<g>
		<g>
			<g>
				<path class="st0" d="M173.4,222.7c0,0.8-0.4,1.2-1.2,1.2h-13.4c-0.4,0-0.7-0.1-1-0.4c-0.3-0.3-0.4-0.6-0.5-1l-2.2-10.7h-13.7
					l-2.2,10.7c-0.1,0.4-0.3,0.8-0.5,1c-0.3,0.3-0.6,0.4-1,0.4h-13.3c-0.9,0-1.3-0.4-1.3-1.2c0-0.1,0-0.2,0-0.2c0,0,0-0.1,0-0.2
					l10.3-47.1c0.4-1.9,1.1-3.4,2-4.6c0.9-1.2,2-2.1,3.3-2.8c1.3-0.7,2.7-1.1,4.3-1.3c1.6-0.2,3.3-0.3,5.1-0.3
					c1.8,0,3.6,0.1,5.2,0.3c1.6,0.2,3,0.7,4.3,1.3c1.3,0.7,2.4,1.6,3.3,2.8c0.9,1.2,1.6,2.8,2,4.6l10.3,47.1c0,0.1,0,0.2,0,0.2
					C173.4,222.6,173.4,222.6,173.4,222.7z M149.1,179.9c-0.1-0.4-0.2-0.6-0.2-0.8c-0.1-0.2-0.3-0.3-0.6-0.3c-0.4,0-0.6,0.1-0.6,0.3
					c-0.1,0.2-0.1,0.4-0.2,0.8l-3.8,19.5h9.2L149.1,179.9z"/>
			</g>
		</g>
		<g>
			<g>
				<path class="st0" d="M214.3,222.6c-0.3,0.2-0.7,0.4-1.3,0.6c-1,0.4-2.5,0.7-4.3,1c-1.8,0.3-4,0.4-6.5,0.4
					c-3.5,0-6.8-0.5-9.6-1.5c-2.9-1-5.4-2.5-7.5-4.6c-2.1-2.1-3.7-4.7-4.8-7.9c-1.2-3.2-1.7-7-1.7-11.4v-7.9c0-4.4,0.6-8.2,1.7-11.4
					c1.2-3.2,2.8-5.8,4.8-7.9c2.1-2.1,4.6-3.6,7.5-4.6c2.9-1,6.1-1.5,9.6-1.5c2.5,0,4.6,0.1,6.5,0.4c1.8,0.3,3.3,0.6,4.3,1
					c0.6,0.2,1.1,0.4,1.3,0.6c0.3,0.2,0.4,0.6,0.4,1.1v9.9c0,1-0.5,1.5-1.4,1.5H213c-1.6-0.2-3.2-0.3-4.9-0.5
					c-1.7-0.2-3.6-0.2-5.8-0.2c-1,0-2,0.1-3,0.4c-0.9,0.3-1.8,0.8-2.5,1.7c-0.7,0.8-1.3,2-1.8,3.5c-0.4,1.5-0.7,3.5-0.7,5.9v7.9
					c0,2.4,0.2,4.3,0.7,5.9c0.4,1.5,1,2.7,1.7,3.5c0.7,0.8,1.5,1.4,2.5,1.7c0.9,0.3,2,0.5,3,0.5c2.2,0,4.2-0.1,5.8-0.2
					c1.7-0.2,3.3-0.3,4.9-0.5h0.2c0.9,0,1.4,0.5,1.4,1.5v9.9C214.6,222,214.5,222.4,214.3,222.6z"/>
			</g>
		</g>
		<g>
			<g>
				<path class="st0" d="M269.5,223.5c-0.3,0.3-0.7,0.5-1.1,0.5h-12.6c-0.4,0-0.8-0.2-1.1-0.5c-0.3-0.3-0.5-0.7-0.5-1.1v-20.9h-16
					v20.9c0,0.4-0.2,0.8-0.5,1.1c-0.3,0.3-0.7,0.5-1.1,0.5h-12.5c-0.4,0-0.8-0.2-1.1-0.5c-0.3-0.3-0.5-0.7-0.5-1.1v-54.1
					c0-0.4,0.2-0.8,0.5-1c0.3-0.3,0.7-0.4,1.1-0.4h12.5c0.4,0,0.8,0.1,1.1,0.4c0.3,0.3,0.5,0.6,0.5,1v19.7h16v-19.7
					c0-0.4,0.2-0.8,0.5-1c0.3-0.3,0.7-0.4,1.1-0.4h12.6c0.4,0,0.8,0.1,1.1,0.4c0.3,0.3,0.5,0.6,0.5,1v54.1
					C269.9,222.8,269.8,223.1,269.5,223.5z"/>
			</g>
		</g>
	</g>
</g>
</svg>
