<?xml version="1.0" encoding="utf-8"?>
<!-- Generator: Adobe Illustrator 24.1.2, SVG Export Plug-In . SVG Version: 6.00 Build 0)  -->
<svg version="1.1" id="Capa_1" xmlns="http://www.w3.org/2000/svg" xmlns:xlink="http://www.w3.org/1999/xlink" x="0px" y="0px"
	 viewBox="0 0 400 400" style="enable-background:new 0 0 400 400;" xml:space="preserve">
<style type="text/css">
	.st0{fill:#BD131F;}
</style>
<g>
	<path class="st0" d="M331,173.9c-2.3-1.8-5.6-1.3-7.4,1.1l-7.4,9.8c-7-48.3-48.7-85.6-98.9-85.6c-2.9,0-5.3,2.4-5.3,5.3
		c0,2.9,2.4,5.3,5.3,5.3c49.3,0,89.5,40.1,89.5,89.4c0,2.3,1.5,4.3,3.6,5c0.5,0.2,1.1,0.3,1.7,0.3c1.6,0,3.2-0.8,4.2-2.1l15.8-21.1
		C333.8,178.9,333.3,175.6,331,173.9z"/>
	<path class="st0" d="M182.7,290.3c-49.3,0-89.4-40.1-89.4-89.4c0-2.3-1.4-4.3-3.6-5c-2.2-0.7-4.5,0-5.9,1.8L68,218.8
		c-1.8,2.3-1.3,5.6,1.1,7.4c2.3,1.8,5.6,1.3,7.4-1.1l7.3-9.8c7,48.3,48.7,85.6,98.9,85.6c2.9,0,5.3-2.4,5.3-5.3
		C187.9,292.7,185.6,290.3,182.7,290.3z"/>
	<g>
		<path class="st0" d="M171.8,224.1c0,0.9-0.4,1.3-1.3,1.3h-14.2c-0.4,0-0.8-0.1-1.1-0.4s-0.5-0.7-0.6-1.1l-2.3-11.3h-14.5
			l-2.3,11.3c-0.1,0.4-0.3,0.8-0.6,1.1c-0.3,0.3-0.6,0.4-1.1,0.4h-14.1c-0.9,0-1.4-0.4-1.4-1.3c0-0.1,0-0.2,0-0.2c0,0,0-0.1,0-0.2
			l10.9-49.9c0.4-2,1.1-3.7,2.1-4.9c1-1.3,2.1-2.3,3.5-3c1.4-0.7,2.9-1.2,4.6-1.4c1.7-0.2,3.5-0.4,5.5-0.4c2,0,3.8,0.1,5.5,0.4
			c1.7,0.2,3.2,0.7,4.6,1.4c1.4,0.7,2.5,1.7,3.5,3s1.7,2.9,2.1,4.9l10.9,49.9c0,0.1,0,0.2,0,0.2C171.8,224,171.8,224,171.8,224.1z
			 M146,178.7c-0.1-0.4-0.2-0.7-0.2-0.9c-0.1-0.2-0.3-0.3-0.6-0.3c-0.4,0-0.6,0.1-0.6,0.3c-0.1,0.2-0.1,0.5-0.2,0.9l-4,20.7h9.8
			L146,178.7z"/>
		<path class="st0" d="M215.1,224c-0.3,0.2-0.7,0.4-1.4,0.7c-1.1,0.4-2.6,0.7-4.6,1s-4.2,0.4-6.9,0.4c-3.8,0-7.2-0.5-10.2-1.6
			c-3.1-1-5.7-2.6-7.9-4.9c-2.2-2.2-3.9-5-5.1-8.4s-1.8-7.4-1.8-12.1v-8.4c0-4.7,0.6-8.7,1.8-12.1c1.2-3.4,2.9-6.2,5.1-8.4
			c2.2-2.2,4.8-3.8,7.9-4.9s6.5-1.6,10.2-1.6c2.6,0,4.9,0.1,6.9,0.4c2,0.3,3.5,0.6,4.6,1c0.6,0.2,1.1,0.4,1.4,0.6
			c0.3,0.2,0.4,0.6,0.4,1.2v10.5c0,1-0.5,1.6-1.5,1.6h-0.2c-1.7-0.2-3.4-0.3-5.2-0.5c-1.8-0.2-3.9-0.2-6.2-0.2
			c-1.1,0-2.1,0.1-3.1,0.4c-1,0.3-1.9,0.9-2.7,1.8c-0.8,0.9-1.4,2.1-1.9,3.7c-0.5,1.6-0.7,3.7-0.7,6.3v8.4c0,2.5,0.2,4.6,0.7,6.2
			c0.5,1.6,1.1,2.8,1.8,3.7c0.8,0.9,1.6,1.5,2.6,1.8c1,0.3,2.1,0.5,3.2,0.5c2.3,0,4.4-0.1,6.2-0.2s3.5-0.3,5.2-0.5h0.2
			c1,0,1.5,0.5,1.5,1.6v10.5C215.5,223.4,215.4,223.8,215.1,224z"/>
		<path class="st0" d="M273.7,224.9c-0.3,0.3-0.7,0.5-1.1,0.5h-13.4c-0.4,0-0.8-0.2-1.1-0.5s-0.5-0.7-0.5-1.1v-22.2h-17v22.2
			c0,0.4-0.2,0.8-0.5,1.1c-0.3,0.3-0.7,0.5-1.1,0.5h-13.3c-0.4,0-0.8-0.2-1.2-0.5c-0.4-0.3-0.5-0.7-0.5-1.1v-57.4
			c0-0.4,0.2-0.8,0.5-1.1s0.8-0.4,1.2-0.4h13.3c0.4,0,0.8,0.1,1.1,0.4c0.3,0.3,0.5,0.7,0.5,1.1v20.9h17v-20.9c0-0.4,0.2-0.8,0.5-1.1
			s0.7-0.4,1.1-0.4h13.4c0.4,0,0.8,0.1,1.1,0.4s0.5,0.7,0.5,1.1v57.4C274.2,224.2,274,224.6,273.7,224.9z"/>
	</g>
</g>
</svg>
