<?xml version="1.0" encoding="utf-8"?>
<!-- Generator: Adobe Illustrator 25.0.0, SVG Export Plug-In . SVG Version: 6.00 Build 0)  -->
<svg version="1.1" id="Capa_1" xmlns="http://www.w3.org/2000/svg" xmlns:xlink="http://www.w3.org/1999/xlink" x="0px" y="0px"
	 viewBox="0 0 400 400" style="enable-background:new 0 0 400 400;" xml:space="preserve">
<style type="text/css">
	.st0{fill:#BD131F;}
</style>
<g>
	<g>
		<path class="st0" d="M200,235.8c-6.6,0-11.9,5.3-11.9,11.9c0,6.6,5.3,11.9,11.9,11.9c6.6,0,11.9-5.4,11.9-11.9
			S206.6,235.8,200,235.8z"/>
	</g>
	<g>
		<path class="st0" d="M304.9,268.6l-89.4-155c-3.1-5.4-8.9-9-15.5-9c-6.6,0-12.4,3.6-15.5,9l-89.4,155c-1.5,2.6-2.4,5.7-2.4,8.9
			c0,9.9,8,17.9,17.9,17.9h75.6h19.6h4.8c2.2,0,3.8-2.2,3.1-4.2l-3.6-10.8c-0.6-1.7-2.1-2.8-3.9-2.8h-6.3c0,0,0,0,0-0.1l-89.2,0
			l89.4-155l0,0l89.4,155l-27.6,0l0,0.1h-11.1c-2.2,0-3.8,2.2-3.1,4.2l3.6,10.8c0.6,1.7,2.1,2.8,3.9,2.8h9.6h18.8h5.8
			c9.9,0,17.9-8,17.9-17.9C307.3,274.3,306.4,271.2,304.9,268.6z"/>
	</g>
	<g>
		<path class="st0" d="M200,170.2c-6.6,0-11.9,5.3-11.9,11.9c0,0.7,0.1,1.4,0.2,2l5.8,34.8c0.5,2.8,2.9,4.9,5.9,4.9
			c3,0,5.4-2.2,5.9-4.9l5.9-34.8c0.1-0.6,0.2-1.3,0.2-2C211.9,175.5,206.6,170.2,200,170.2z"/>
	</g>
</g>
</svg>
