<svg xmlns="http://www.w3.org/2000/svg" viewBox="0 0 329 93.3"><defs><style>.cls-1{fill:gray;}.cls-2{fill:#fff;}.cls-3{fill:#ce0e2d;}</style></defs><title>Asset 1</title><g id="Layer_2" data-name="Layer 2"><g id="Layer_1-2" data-name="Layer 1"><path class="cls-1" d="M310.1,93.3H18.9A19,19,0,0,1,0,74.4V18.9A19,19,0,0,1,18.9,0H310.1A19,19,0,0,1,329,18.9V74.4A18.88,18.88,0,0,1,310.1,93.3Z"/><path class="cls-2" d="M110.2,18.1h7.9l-.2,2.1h-5.1v3.3h4.8v2h-4.8v3.6h5.3l-.2,2.2h-7.8V18.1Z"/><path class="cls-2" d="M123.4,24.6l-4.1-6.4h3l2.6,4.5,2.7-4.5h2.9l-4.1,6.4,4.4,6.8h-3l-3-5-3,5h-2.9Z"/><path class="cls-2" d="M132.5,18.1h3.7a6.25,6.25,0,0,1,3.9,1,3.61,3.61,0,0,1,1.4,3,4.38,4.38,0,0,1-.6,2.3,4.2,4.2,0,0,1-1.7,1.5,6,6,0,0,1-2.4.5,11.14,11.14,0,0,1-1.7-.2v5h-2.6Zm5.7,5.8a2.35,2.35,0,0,0,.6-1.7,1.65,1.65,0,0,0-.7-1.6,3.68,3.68,0,0,0-2-.5h-1v4.3a5.74,5.74,0,0,0,1.2.1A2.55,2.55,0,0,0,138.2,23.9Z"/><path class="cls-2" d="M143.7,18.1h2.6V29h5.3l-.2,2.2h-7.7V18.1Z"/><path class="cls-2" d="M155.1,30.6a5.41,5.41,0,0,1-2.2-2.3,7.84,7.84,0,0,1-.8-3.5,8,8,0,0,1,.8-3.6,6.15,6.15,0,0,1,2.4-2.4A7.23,7.23,0,0,1,159,18a7.54,7.54,0,0,1,3.5.8,4.91,4.91,0,0,1,2.2,2.3,7.54,7.54,0,0,1,.8,3.5,8.74,8.74,0,0,1-.8,3.7,7.36,7.36,0,0,1-9.6,2.3Zm5.8-1.8a3.71,3.71,0,0,0,1.3-1.7,6.05,6.05,0,0,0,.4-2.4,6.05,6.05,0,0,0-.4-2.4,3.71,3.71,0,0,0-1.3-1.7,4.33,4.33,0,0,0-4.4,0,3.71,3.71,0,0,0-1.3,1.7,5.87,5.87,0,0,0-.4,2.3,6.05,6.05,0,0,0,.4,2.4,3.71,3.71,0,0,0,1.3,1.7,3.8,3.8,0,0,0,2.2.6A3.16,3.16,0,0,0,160.9,28.8Zm-3.8-11.7,2.4-2.8,2.6.2-3.4,2.8Z"/><path class="cls-2" d="M167.9,18.1h4.3a5.64,5.64,0,0,1,3.5.9,3.09,3.09,0,0,1,1.2,2.6,3.42,3.42,0,0,1-.4,1.8,4.49,4.49,0,0,1-1,1.3,3.75,3.75,0,0,1-1.2.7l4,5.8h-3L172,26.1h-1.5v5.1h-2.6Zm3.7,6.1a2.77,2.77,0,0,0,1.3-.3,2.36,2.36,0,0,0,.9-.8,2.66,2.66,0,0,0,.3-1.2,1.49,1.49,0,0,0-.6-1.3,2.67,2.67,0,0,0-1.7-.4h-1.3v4.1h1.1Z"/><path class="cls-2" d="M187.2,27.9h-5L181,31.2h-2.7L183.4,18H186l5.2,13.2h-2.8Zm-4.3-2h3.6l-1.3-3.5a6.87,6.87,0,0,1-.5-1.7,15.43,15.43,0,0,1-.5,1.7Z"/><path class="cls-2" d="M192.9,18.1h2.6V29h5.3l-.2,2.2h-7.7V18.1Z"/><path class="cls-2" d="M204.3,30.6a5.41,5.41,0,0,1-2.2-2.3,7.84,7.84,0,0,1-.8-3.5,8,8,0,0,1,.8-3.6,6.15,6.15,0,0,1,2.4-2.4,7.23,7.23,0,0,1,3.7-.8,7.54,7.54,0,0,1,3.5.8,4.91,4.91,0,0,1,2.2,2.3,7.54,7.54,0,0,1,.8,3.5,8.74,8.74,0,0,1-.8,3.7,6.33,6.33,0,0,1-6,3.2A6.63,6.63,0,0,1,204.3,30.6Zm5.8-1.8a3.71,3.71,0,0,0,1.3-1.7,6.05,6.05,0,0,0,.4-2.4,6.05,6.05,0,0,0-.4-2.4,3.71,3.71,0,0,0-1.3-1.7,4.33,4.33,0,0,0-4.4,0,3.71,3.71,0,0,0-1.3,1.7,5.87,5.87,0,0,0-.4,2.3,6.05,6.05,0,0,0,.4,2.4,3.71,3.71,0,0,0,1.3,1.7,3.8,3.8,0,0,0,2.2.6A3.16,3.16,0,0,0,210.1,28.8Z"/><path class="cls-2" d="M222.9,18.1h7.9l-.2,2.1h-5.1v3.3h4.8v2h-4.8v3.6h5.3l-.2,2.2h-7.8V18.1Z"/><path class="cls-2" d="M233.4,18.1h3l6.1,9.8c-.1-1.1-.1-2-.1-2.7V18.1h2.4V31.3h-3l-6.2-9.9c.1,1.1.1,2.2.1,3.1v6.8h-2.4V18.1Z"/><path class="cls-2" d="M128,61.6H117.7l-2.5,6.9h-4.5l10.1-25.8h4.3l10.4,25.8h-4.8Zm-9-3.5h7.7l-2.8-7.4a22.68,22.68,0,0,1-1.1-3.4c-.3,1.1-.7,2.2-1.1,3.3Z"/><path class="cls-2" d="M137.4,54c0-1.4,0-3-.1-4.7h4.1a9.86,9.86,0,0,1,.3,2.4,7.71,7.71,0,0,1,5.9-2.8,6.53,6.53,0,0,1,3.6,1,6.23,6.23,0,0,1,2.6,3.1,11.94,11.94,0,0,1,1,5.3,13.05,13.05,0,0,1-1.2,5.8,8.07,8.07,0,0,1-3.2,3.6,9.5,9.5,0,0,1-4.8,1.2,10.72,10.72,0,0,1-3.9-.7v7.9l-4.4.4V54ZM149,63.9a8.84,8.84,0,0,0,1.3-5.3,8.35,8.35,0,0,0-1.1-4.7,3.44,3.44,0,0,0-3-1.5,5,5,0,0,0-2.4.6,9.76,9.76,0,0,0-2.1,1.6V64.9a5.27,5.27,0,0,0,1.5.5,11.13,11.13,0,0,0,1.7.2A4.42,4.42,0,0,0,149,63.9Z"/><path class="cls-2" d="M157.7,54c0-1.4,0-3-.1-4.7h4.1a9.86,9.86,0,0,1,.3,2.4,7.71,7.71,0,0,1,5.9-2.8,6.53,6.53,0,0,1,3.6,1,6.23,6.23,0,0,1,2.6,3.1,11.94,11.94,0,0,1,1,5.3,13.05,13.05,0,0,1-1.2,5.8,8.07,8.07,0,0,1-3.2,3.6,9.5,9.5,0,0,1-4.8,1.2,10.72,10.72,0,0,1-3.9-.7v7.9l-4.4.4V54Zm11.5,9.9a8.84,8.84,0,0,0,1.3-5.3,8.35,8.35,0,0,0-1.1-4.7,3.44,3.44,0,0,0-3-1.5,5,5,0,0,0-2.4.6,9.76,9.76,0,0,0-2.1,1.6V64.9a5.27,5.27,0,0,0,1.5.5,11.13,11.13,0,0,0,1.7.2A4.42,4.42,0,0,0,169.2,63.9Z"/><path class="cls-2" d="M183.4,67.3a11.2,11.2,0,0,1-4.4-4.5,15.23,15.23,0,0,1-1.5-6.9,14.24,14.24,0,0,1,1.8-7.4,12.47,12.47,0,0,1,4.8-4.6,15.1,15.1,0,0,1,6.8-1.5,18.59,18.59,0,0,1,4.2.5,24.3,24.3,0,0,1,3.8,1.3l-1.1,3.4a15.81,15.81,0,0,0-6.7-1.7,9.89,9.89,0,0,0-4.7,1.1,7.88,7.88,0,0,0-3.1,3.4,13.8,13.8,0,0,0-.2,10.3,7.61,7.61,0,0,0,2.7,3.4,8.41,8.41,0,0,0,4.7,1.2,22.75,22.75,0,0,0,2.6-.2,8.44,8.44,0,0,0,2.4-.6V59.3h-6V55.9h10.2V66.8a25.07,25.07,0,0,1-4.6,1.6,19.73,19.73,0,0,1-4.8.6A14.35,14.35,0,0,1,183.4,67.3Z"/><path class="cls-2" d="M215.4,68.6a9.52,9.52,0,0,1-.3-2.5,10.88,10.88,0,0,1-2.6,2.1,7.46,7.46,0,0,1-3.7.8,6,6,0,0,1-3-.7,5.26,5.26,0,0,1-2.2-2,6.32,6.32,0,0,1-.8-3.2,5.62,5.62,0,0,1,2-4.5c1.3-1.1,3.6-1.7,6.7-1.7,1.2,0,2.3.1,3.5.2v-.4a5,5,0,0,0-1.1-3.6,4.29,4.29,0,0,0-3.1-1,11.28,11.28,0,0,0-3,.4,15.08,15.08,0,0,0-2.8,1l-.7-3.2a14.12,14.12,0,0,1,3.1-1,17.83,17.83,0,0,1,4.1-.4,10.14,10.14,0,0,1,4.2.8,5.26,5.26,0,0,1,2.7,2.6,10.09,10.09,0,0,1,1,5v7.6c0,.8,0,2,.1,3.6h-4.1ZM212.8,65a6.27,6.27,0,0,0,2.2-1.6V59.8c-1.2-.1-2.2-.2-2.9-.2a6,6,0,0,0-3.8.9,3,3,0,0,0-1,2.4,2.56,2.56,0,0,0,.8,2.1,2.82,2.82,0,0,0,2.1.7A6.76,6.76,0,0,0,212.8,65Z"/><path class="cls-2" d="M223.3,63.9V41.2l4.4-.4V63.1a2.5,2.5,0,0,0,.4,1.7,1.73,1.73,0,0,0,1.3.5,7.39,7.39,0,0,0,1.2-.2l.5,3.2a5.41,5.41,0,0,1-1.5.4,11.13,11.13,0,0,1-1.7.2C224.8,68.9,223.3,67.3,223.3,63.9Z"/><path class="cls-2" d="M234.2,63.9V41.2l4.4-.4V63.1a2.5,2.5,0,0,0,.4,1.7,1.73,1.73,0,0,0,1.3.5,7.39,7.39,0,0,0,1.2-.2l.5,3.2a5.41,5.41,0,0,1-1.5.4,11.13,11.13,0,0,1-1.7.2C235.8,68.9,234.2,67.3,234.2,63.9Z"/><path class="cls-2" d="M260.3,59.5H247.7c.2,4,2.1,6,5.8,6a14.07,14.07,0,0,0,2.8-.3,14.26,14.26,0,0,0,2.7-.9l1,3a17,17,0,0,1-7.3,1.6,10.52,10.52,0,0,1-5.2-1.2,7.83,7.83,0,0,1-3.2-3.3,11.75,11.75,0,0,1-1.1-5.2,13.15,13.15,0,0,1,1.1-5.5,8.15,8.15,0,0,1,3.1-3.5A8.77,8.77,0,0,1,252,49a7.78,7.78,0,0,1,4.6,1.3,7.61,7.61,0,0,1,2.7,3.4,11.93,11.93,0,0,1,.9,4.7v1.1ZM256,56.7a5.3,5.3,0,0,0-1.2-3.4,3.42,3.42,0,0,0-2.8-1.1,3.78,3.78,0,0,0-2.8,1.2,7.16,7.16,0,0,0-1.5,3.4H256Z"/><path class="cls-2" d="M263.8,54.2c0-1.1,0-2.7-.1-4.8h4.1c.1.5.1,1.2.2,1.9a12.13,12.13,0,0,1,.1,1.8,12.7,12.7,0,0,1,1.5-2.1,11.51,11.51,0,0,1,1.7-1.4,4.34,4.34,0,0,1,2.3-.5,7.18,7.18,0,0,1,1.7.2l-.6,3.8a5.9,5.9,0,0,0-1.4-.2,5,5,0,0,0-2.7.8,10.43,10.43,0,0,0-2.5,2.6V68.6h-4.4V54.2Z"/><path class="cls-2" d="M278,76.4a6.22,6.22,0,0,1-1.6-.4l.8-3.2a3.59,3.59,0,0,0,1.1.2,6.15,6.15,0,0,0,1.3.1c1.9,0,3.4-1.3,4.4-3.8l.3-.7-7.1-19.4h4.7L285.5,60a24.47,24.47,0,0,1,1.1,4.3,33.1,33.1,0,0,1,1.2-4.2l3.6-10.9h4.4l-7.1,19.5a23.6,23.6,0,0,1-2.2,4.5,7.92,7.92,0,0,1-2.7,2.5,8.87,8.87,0,0,1-3.8.8A6.73,6.73,0,0,1,278,76.4Z"/><g id="形状_1_拷贝_25" data-name="形状 1 拷贝 25"><path class="cls-3" d="M77.9,17.5H53.1c-11.7,0-16,4.3-16,16V58.4c0,11.7,4.3,16,16,16H77.9c11.7,0,16-4.3,16-16V33.5C93.9,21.8,89.7,17.5,77.9,17.5Z"/></g><path class="cls-2" d="M48.4,45.9h1.5v7.4H48.4v-3H45v3H43.5V45.9H45v3h3.4Zm8.5,4.3c0,1.2-.6,1.9-1.7,1.9s-1.7-.7-1.7-1.9V46H52v4.2a3.2,3.2,0,1,0,6.4,0V46H56.9Zm17.4.9L72.6,46H71.4l-1.7,5.1L68.1,46H66.5l2.6,7.4h1.2L72,48.5l1.7,4.9H75L77.6,46H76Zm5.9-.9h2.7V48.8H80.2V47.3h4V45.9H78.7v7.4h5.6V51.9H80.2Zm5.9,3.2h1.5V46H86.1ZM61.3,51.8l-.7,1.5H59.1l3.3-7.4h1.3L67,53.3H65.4l-.7-1.5Zm.6-1.3h2.3l-1.1-2.7Z"/><path class="cls-2" d="M65.5,36.5A9.5,9.5,0,0,1,56,27h1.3a8.1,8.1,0,1,0,16.2,0h1.3A9.26,9.26,0,0,1,65.5,36.5Z"/></g></g></svg>