<svg xmlns="http://www.w3.org/2000/svg" viewBox="0 0 332 97" width="332" height="97">
	<style>
		tspan { white-space:pre }
		.shp0 { fill: #808080 } 
		.shp1 { fill: #ffffff } 
		.shp2 { fill: #ce0e2d } 
	</style>
	<g id="Layer">
		<path id="Layer" class="shp0" d="M311.6 95.6L20.4 95.6C10 95.6 1.5 87.1 1.5 76.7L1.5 21.2C1.5 10.8 10 2.3 20.4 2.3L311.6 2.3C322 2.3 330.5 10.8 330.5 21.2L330.5 76.7C330.5 87.2 322 95.6 311.6 95.6Z" />
		<g id="Layer">
			<g id="Layer">
				<g id="Layer">
					<path id="Layer" class="shp1" d="M111.7 20.4L119.6 20.4L119.4 22.5L114.3 22.5L114.3 25.8L119.1 25.8L119.1 27.8L114.3 27.8L114.3 31.4L119.6 31.4L119.4 33.6L111.6 33.6L111.6 20.4L111.7 20.4Z" />
					<path id="Layer" class="shp1" d="M124.9 26.9L120.8 20.5L123.8 20.5L126.4 25L129.1 20.5L132 20.5L127.9 26.9L132.3 33.7L129.3 33.7L126.3 28.7L123.3 33.7L120.4 33.7L124.9 26.9Z" />
					<path id="Layer" fill-rule="evenodd" class="shp1" d="M134 20.4L137.7 20.4C139.4 20.4 140.7 20.7 141.6 21.4C142.5 22.1 143 23.1 143 24.4C143 25.3 142.8 26 142.4 26.7C142 27.3 141.5 27.8 140.7 28.2C140 28.5 139.2 28.7 138.3 28.7C137.8 28.7 137.2 28.6 136.6 28.5L136.6 33.5L134 33.5L134 20.4ZM139.7 26.2C140.1 25.8 140.3 25.2 140.3 24.5C140.3 23.7 140.1 23.2 139.6 22.9C139.1 22.6 138.5 22.4 137.6 22.4L136.6 22.4L136.6 26.7C137.1 26.8 137.5 26.8 137.8 26.8C138.7 26.8 139.3 26.6 139.7 26.2Z" />
					<path id="Layer" class="shp1" d="M145.2 20.4L147.8 20.4L147.8 31.3L153.1 31.3L152.9 33.5L145.2 33.5L145.2 20.4L145.2 20.4Z" />
					<path id="Layer" fill-rule="evenodd" class="shp1" d="M156.6 32.9C155.6 32.3 154.9 31.6 154.4 30.6C153.9 29.6 153.6 28.4 153.6 27.1C153.6 25.7 153.9 24.5 154.4 23.5C155 22.5 155.7 21.7 156.8 21.1C157.8 20.5 159.1 20.3 160.5 20.3C161.9 20.3 163 20.6 164 21.1C165 21.6 165.7 22.4 166.2 23.4C166.7 24.4 167 25.5 167 26.9C167 28.3 166.7 29.5 166.2 30.6C165.6 31.6 164.8 32.4 163.8 33C162.8 33.6 161.6 33.8 160.2 33.8C158.8 33.8 157.6 33.5 156.6 32.9ZM162.4 31.1C163 30.7 163.4 30.1 163.7 29.4C164 28.7 164.1 27.9 164.1 27C164.1 26.1 164 25.3 163.7 24.6C163.4 23.9 163 23.3 162.4 22.9C161.8 22.5 161.1 22.3 160.2 22.3C159.3 22.3 158.6 22.5 158 22.9C157.4 23.3 157 23.9 156.7 24.6C156.4 25.3 156.3 26.1 156.3 26.9C156.3 27.8 156.4 28.6 156.7 29.3C157 30 157.4 30.6 158 31C158.6 31.4 159.3 31.6 160.2 31.6C161.1 31.7 161.8 31.5 162.4 31.1ZM158.6 19.4L161 16.6L163.6 16.8L160.2 19.6L158.6 19.4Z" />
					<path id="Layer" fill-rule="evenodd" class="shp1" d="M169.4 20.4L173.7 20.4C175.3 20.4 176.4 20.7 177.2 21.3C178 21.9 178.4 22.8 178.4 23.9C178.4 24.6 178.3 25.2 178 25.7C177.7 26.2 177.4 26.7 177 27C176.6 27.3 176.2 27.6 175.8 27.7L179.8 33.5L176.8 33.5L173.5 28.4L172 28.4L172 33.5L169.4 33.5L169.4 20.4ZM173.1 26.5C173.6 26.5 174 26.4 174.4 26.2C174.8 26 175.1 25.7 175.3 25.4C175.5 25 175.6 24.6 175.6 24.2C175.6 23.6 175.4 23.2 175 22.9C174.6 22.6 174.1 22.5 173.3 22.5L172 22.5L172 26.6L173.1 26.6L173.1 26.5Z" />
					<path id="Layer" fill-rule="evenodd" class="shp1" d="M188.7 30.2L183.7 30.2L182.5 33.5L179.8 33.5L184.9 20.3L187.5 20.3L192.7 33.5L189.9 33.5L188.7 30.2ZM184.4 28.2L188 28.2L186.7 24.7C186.5 24.2 186.3 23.7 186.2 23C186.1 23.5 185.9 24.1 185.7 24.7L184.4 28.2Z" />
					<path id="Layer" class="shp1" d="M194.4 20.4L197 20.4L197 31.3L202.3 31.3L202.1 33.5L194.4 33.5L194.4 20.4L194.4 20.4Z" />
					<path id="Layer" fill-rule="evenodd" class="shp1" d="M205.8 32.9C204.8 32.3 204.1 31.6 203.6 30.6C203.1 29.6 202.8 28.4 202.8 27.1C202.8 25.7 203.1 24.5 203.6 23.5C204.2 22.5 204.9 21.7 206 21.1C207 20.5 208.3 20.3 209.7 20.3C211.1 20.3 212.2 20.6 213.2 21.1C214.2 21.6 214.9 22.4 215.4 23.4C215.9 24.4 216.2 25.5 216.2 26.9C216.2 28.3 215.9 29.5 215.4 30.6C214.8 31.6 214 32.4 213 33C212 33.6 210.8 33.8 209.4 33.8C207.9 33.8 206.8 33.5 205.8 32.9ZM211.6 31.1C212.2 30.7 212.6 30.1 212.9 29.4C213.2 28.7 213.3 27.9 213.3 27C213.3 26.1 213.2 25.3 212.9 24.6C212.6 23.9 212.2 23.3 211.6 22.9C211 22.5 210.3 22.3 209.4 22.3C208.5 22.3 207.8 22.5 207.2 22.9C206.6 23.3 206.2 23.9 205.9 24.6C205.6 25.3 205.5 26.1 205.5 26.9C205.5 27.8 205.6 28.6 205.9 29.3C206.2 30 206.6 30.6 207.2 31C207.8 31.4 208.5 31.6 209.4 31.6C210.3 31.7 211 31.5 211.6 31.1Z" />
					<path id="Layer" class="shp1" d="M224.4 20.4L232.3 20.4L232.1 22.5L227 22.5L227 25.8L231.8 25.8L231.8 27.8L227 27.8L227 31.4L232.3 31.4L232.1 33.6L224.3 33.6L224.3 20.4L224.4 20.4Z" />
					<path id="Layer" class="shp1" d="M234.9 20.4L237.9 20.4L244 30.2C243.9 29.1 243.9 28.2 243.9 27.5L243.9 20.4L246.3 20.4L246.3 33.6L243.3 33.6L237.1 23.7C237.2 24.8 237.2 25.9 237.2 26.8L237.2 33.6L234.8 33.6L234.8 20.4L234.9 20.4Z" />
				</g>
				<g id="Layer">
					<g id="Layer">
						<path id="Layer" fill-rule="evenodd" class="shp1" d="M129.5 63.9L119.2 63.9L116.7 70.8L112.2 70.8L122.3 45L126.6 45L137 70.8L132.2 70.8L129.5 63.9ZM120.5 60.4L128.2 60.4L125.4 53C125 52 124.6 50.9 124.3 49.6C124 50.7 123.6 51.8 123.2 52.9L120.5 60.4Z" />
						<path id="Layer" fill-rule="evenodd" class="shp1" d="M138.9 56.3C138.9 54.9 138.9 53.3 138.8 51.6L142.9 51.6C143.1 52.4 143.2 53.2 143.2 54C144.9 52.1 146.9 51.2 149.1 51.2C150.4 51.2 151.6 51.5 152.7 52.2C153.8 52.8 154.7 53.9 155.3 55.3C156 56.7 156.3 58.5 156.3 60.6C156.3 62.8 155.9 64.8 155.1 66.4C154.3 68 153.3 69.2 151.9 70C150.5 70.8 148.9 71.2 147.1 71.2C145.8 71.2 144.5 71 143.2 70.5L143.2 78.4L138.8 78.8L138.8 56.3L138.9 56.3ZM150.5 66.2C151.4 65 151.8 63.2 151.8 60.9C151.8 58.8 151.4 57.2 150.7 56.2C150 55.2 149 54.7 147.7 54.7C146.8 54.7 146.1 54.9 145.3 55.3C144.6 55.7 143.9 56.2 143.2 56.9L143.2 67.2C143.6 67.4 144.1 67.6 144.7 67.7C145.3 67.8 145.9 67.9 146.4 67.9C148.3 68 149.6 67.4 150.5 66.2Z" />
						<path id="Layer" fill-rule="evenodd" class="shp1" d="M159.2 56.3C159.2 54.9 159.2 53.3 159.1 51.6L163.2 51.6C163.4 52.4 163.5 53.2 163.5 54C165.2 52.1 167.2 51.2 169.4 51.2C170.7 51.2 171.9 51.5 173 52.2C174.1 52.8 175 53.9 175.6 55.3C176.3 56.7 176.6 58.5 176.6 60.6C176.6 62.8 176.2 64.8 175.4 66.4C174.6 68 173.6 69.2 172.2 70C170.8 70.8 169.2 71.2 167.4 71.2C166.1 71.2 164.8 71 163.5 70.5L163.5 78.4L159.1 78.8L159.1 56.3L159.2 56.3ZM170.7 66.2C171.6 65 172 63.2 172 60.9C172 58.8 171.6 57.2 170.9 56.2C170.2 55.2 169.2 54.7 167.9 54.7C167 54.7 166.3 54.9 165.5 55.3C164.8 55.7 164.1 56.2 163.4 56.9L163.4 67.2C163.8 67.4 164.3 67.6 164.9 67.7C165.5 67.8 166.1 67.9 166.6 67.9C168.5 68 169.8 67.4 170.7 66.2Z" />
						<path id="Layer" class="shp1" d="M184.9 69.6C183 68.5 181.5 67 180.5 65.1C179.5 63.1 179 60.8 179 58.2C179 55.3 179.6 52.8 180.8 50.8C182 48.8 183.6 47.3 185.6 46.2C187.6 45.2 189.9 44.7 192.4 44.7C193.9 44.7 195.3 44.9 196.6 45.2C197.9 45.5 199.2 46 200.4 46.5L199.3 49.9C197 48.8 194.7 48.2 192.6 48.2C190.8 48.2 189.2 48.6 187.9 49.3C186.6 50.1 185.5 51.2 184.8 52.7C184.1 54.2 183.7 56 183.7 58.1C183.7 59.9 184 61.6 184.6 63C185.2 64.4 186.1 65.6 187.3 66.4C188.5 67.2 190.1 67.6 192 67.6C192.9 67.6 193.7 67.5 194.6 67.4C195.5 67.3 196.3 67.1 197 66.8L197 61.6L191 61.6L191 58.2L201.2 58.2L201.2 69.1C199.7 69.8 198.2 70.3 196.6 70.7C195 71.1 193.4 71.3 191.8 71.3C189 71.2 186.8 70.7 184.9 69.6Z" />
						<path id="Layer" fill-rule="evenodd" class="shp1" d="M216.9 70.9C216.7 70.2 216.6 69.3 216.6 68.4C215.9 69.2 215 69.9 214 70.5C212.9 71.1 211.7 71.3 210.3 71.3C209.2 71.3 208.2 71.1 207.3 70.6C206.4 70.2 205.7 69.5 205.1 68.6C204.6 67.7 204.3 66.7 204.3 65.4C204.3 63.5 205 62 206.3 60.9C207.6 59.8 209.9 59.2 213 59.2C214.2 59.2 215.3 59.3 216.5 59.4L216.5 59C216.5 57.3 216.1 56.1 215.4 55.4C214.7 54.7 213.6 54.4 212.3 54.4C211.4 54.4 210.4 54.5 209.3 54.8C208.2 55.1 207.3 55.4 206.5 55.8L205.8 52.6C206.6 52.2 207.6 51.9 208.9 51.6C210.2 51.3 211.5 51.2 213 51.2C214.7 51.2 216.1 51.5 217.2 52C218.4 52.5 219.3 53.4 219.9 54.6C220.6 55.8 220.9 57.5 220.9 59.6L220.9 67.2C220.9 68 220.9 69.2 221 70.8L216.9 70.8L216.9 70.9ZM214.3 67.3C215.2 66.9 216 66.3 216.5 65.7L216.5 62.1C215.3 62 214.3 61.9 213.6 61.9C211.8 61.9 210.5 62.2 209.8 62.8C209.1 63.4 208.8 64.2 208.8 65.2C208.8 66.2 209.1 66.9 209.6 67.3C210.1 67.8 210.8 68 211.7 68C212.5 68 213.4 67.7 214.3 67.3Z" />
						<path id="Layer" class="shp1" d="M224.8 66.2L224.8 43.5L229.2 43.1L229.2 65.4C229.2 66.2 229.3 66.8 229.6 67.1C229.9 67.4 230.3 67.6 230.9 67.6C231.2 67.6 231.6 67.5 232.1 67.4L232.6 70.6C232.2 70.8 231.7 70.9 231.1 71C230.5 71.1 229.9 71.2 229.4 71.2C226.3 71.2 224.8 69.6 224.8 66.2Z" />
						<path id="Layer" class="shp1" d="M235.7 66.2L235.7 43.5L240.1 43.1L240.1 65.4C240.1 66.2 240.2 66.8 240.5 67.1C240.8 67.4 241.2 67.6 241.8 67.6C242.1 67.6 242.5 67.5 243 67.4L243.5 70.6C243.1 70.8 242.6 70.9 242 71C241.4 71.1 240.8 71.2 240.3 71.2C237.3 71.2 235.7 69.6 235.7 66.2Z" />
						<path id="Layer" fill-rule="evenodd" class="shp1" d="M249.2 61.8C249.4 65.8 251.3 67.8 255 67.8C255.9 67.8 256.8 67.7 257.8 67.5C258.7 67.3 259.6 67 260.5 66.6L261.5 69.6C259.4 70.6 256.9 71.2 254.2 71.2C252.2 71.2 250.4 70.8 249 70C247.6 69.2 246.5 68.1 245.8 66.7C245.1 65.3 244.7 63.5 244.7 61.5C244.7 59.4 245.1 57.5 245.8 56C246.5 54.5 247.6 53.3 248.9 52.5C250.2 51.7 251.8 51.3 253.5 51.3C255.3 51.3 256.8 51.7 258.1 52.6C259.3 53.4 260.2 54.6 260.8 56C261.4 57.4 261.7 59 261.7 60.7L261.7 61.8L249.2 61.8ZM257.5 59C257.4 57.5 257 56.3 256.3 55.6C255.6 54.8 254.7 54.5 253.5 54.5C252.4 54.5 251.5 54.9 250.7 55.7C250 56.5 249.5 57.6 249.2 59.1L257.5 59.1L257.5 59Z" />
						<path id="Layer" class="shp1" d="M265.3 56.5C265.3 55.4 265.3 53.8 265.2 51.7L269.3 51.7C269.4 52.2 269.4 52.9 269.5 53.6C269.6 54.3 269.6 54.9 269.6 55.4C270.1 54.6 270.6 53.8 271.1 53.3C271.6 52.8 272.2 52.3 272.8 51.9C273.5 51.5 274.2 51.4 275.1 51.4C275.8 51.4 276.4 51.5 276.8 51.6L276.2 55.4C275.8 55.3 275.3 55.2 274.8 55.2C273.8 55.2 272.9 55.5 272.1 56C271.3 56.5 270.5 57.4 269.6 58.6L269.6 70.9L265.2 70.9L265.2 56.5L265.3 56.5Z" />
						<path id="Layer" class="shp1" d="M279.5 78.7C278.9 78.6 278.3 78.5 277.9 78.3L278.7 75.1C279 75.2 279.4 75.3 279.8 75.3C280.3 75.4 280.7 75.4 281.1 75.4C283 75.4 284.5 74.1 285.5 71.6L285.8 70.9L278.7 51.5L283.4 51.5L287 62.3C287.6 64.2 288 65.6 288.1 66.6C288.4 65.2 288.8 63.8 289.3 62.4L292.9 51.5L297.3 51.5L290.2 71C289.5 72.8 288.8 74.3 288 75.5C287.2 76.6 286.3 77.5 285.3 78C284.2 78.5 283 78.8 281.5 78.8C280.8 78.9 280.2 78.8 279.5 78.7Z" />
					</g>
					<g id="Layer">
						<g id="形状_1_拷贝_25_4_">
							<g id="Layer">
								<path id="Layer" fill-rule="evenodd" class="shp2" d="M79.4 19.8L54.6 19.8C42.9 19.8 38.6 24.1 38.6 35.8L38.6 60.7C38.6 72.4 42.9 76.7 54.6 76.7L79.4 76.7C91.1 76.7 95.4 72.4 95.4 60.7L95.4 35.8C95.4 24.1 91.2 19.8 79.4 19.8Z" />
							</g>
						</g>
						<path id="Layer" fill-rule="evenodd" class="shp1" d="M49.9 48.2L51.4 48.2L51.4 55.6L49.9 55.6L49.9 52.6L46.5 52.6L46.5 55.6L45 55.6L45 48.2L46.5 48.2L46.5 51.2L49.9 51.2L49.9 48.2ZM58.4 48.3L59.9 48.3L59.9 52.5C59.9 54.6 58.7 55.8 56.7 55.8C54.7 55.8 53.5 54.6 53.5 52.5L53.5 48.3L55 48.3L55 52.5C55 53.7 55.6 54.4 56.7 54.4C57.8 54.4 58.4 53.7 58.4 52.5L58.4 48.3ZM77.5 48.3L79.1 48.3L76.5 55.7L75.2 55.7L73.5 50.8L71.8 55.7L70.6 55.7L68 48.3L69.6 48.3L71.2 53.4L72.9 48.3L74.1 48.3L75.8 53.4L77.5 48.3ZM81.7 54.2L85.8 54.2L85.8 55.6L80.2 55.6L80.2 48.2L85.7 48.2L85.7 49.6L81.7 49.6L81.7 51.1L84.4 51.1L84.4 52.5L81.7 52.5L81.7 54.2ZM87.6 48.3L89.1 48.3L89.1 55.7L87.6 55.7L87.6 48.3ZM62.8 54.1L62.1 55.6L60.6 55.6L63.9 48.2L65.2 48.2L68.5 55.6L66.9 55.6L66.2 54.1L62.8 54.1ZM63.4 52.8L65.7 52.8L64.6 50.1L63.4 52.8Z" />
						<path id="Layer" class="shp1" d="M67 38.8C61.8 38.8 57.5 34.6 57.5 29.3L58.8 29.3C58.8 33.8 62.4 37.4 66.9 37.4C71.4 37.4 75 33.8 75 29.3L76.3 29.3C76.5 34.5 72.2 38.8 67 38.8Z" />
					</g>
				</g>
			</g>
		</g>
	</g>
</svg>