<svg xmlns="http://www.w3.org/2000/svg" viewBox="0 0 332 98" width="332" height="98">
	<style>
		tspan { white-space:pre }
		.shp0 { fill: #808080 } 
		.shp1 { fill: #ffffff } 
	</style>
	<g id="Layer">
		<path id="Layer" class="shp0" d="M311.6 95.6L20.4 95.6C10 95.6 1.5 87.1 1.5 76.7L1.5 21.2C1.5 10.8 10 2.3 20.4 2.3L311.6 2.3C322 2.3 330.5 10.8 330.5 21.2L330.5 76.7C330.5 87.2 322 95.6 311.6 95.6Z" />
		<g id="Layer">
			<path id="Layer" class="shp1" d="M73.6 48.3C73.5 40.4 80.1 36.5 80.4 36.3C76.7 30.9 70.9 30.1 68.8 30.1C63.9 29.6 59.2 33 56.7 33C54.2 33 50.3 30.1 46.2 30.2C40.9 30.3 35.9 33.3 33.2 38.1C27.6 47.8 31.8 62 37.1 69.8C39.8 73.6 42.9 77.9 47 77.7C51 77.5 52.5 75.1 57.4 75.1C62.2 75.1 63.6 77.7 67.8 77.6C72.1 77.5 74.8 73.8 77.4 69.9C80.5 65.5 81.8 61.2 81.8 61C81.9 60.9 73.6 57.8 73.6 48.3Z" />
			<path id="Layer" class="shp1" d="M65.6 24.9C67.8 22.2 69.2 18.5 68.8 14.8C65.7 14.9 61.8 17 59.5 19.6C57.5 21.9 55.7 25.7 56.2 29.3C59.8 29.6 63.4 27.6 65.6 24.9Z" />
			<path id="Layer" fill-rule="evenodd" class="shp1" d="M131.8 63.9L126.2 63.9L123.1 54.3L112.4 54.3L109.5 63.9L104 63.9L114.6 31.1L121.1 31.1L131.8 63.9ZM122.1 50.2L119.3 41.6C119 40.7 118.4 38.7 117.6 35.4L117.5 35.4C117.2 36.8 116.6 38.9 115.9 41.6L113.2 50.2L122.1 50.2Z" />
			<path id="Layer" fill-rule="evenodd" class="shp1" d="M159 51.7C159 55.7 157.9 58.9 155.7 61.2C153.7 63.3 151.3 64.3 148.4 64.3C145.3 64.3 143 63.2 141.7 60.9L141.6 60.9L141.6 73.4L136.3 73.4L136.3 48C136.3 45.5 136.2 42.9 136.1 40.2L140.7 40.2L141 43.9L141.1 43.9C142.9 41.1 145.5 39.7 149.1 39.7C151.9 39.7 154.2 40.8 156.1 43C158.1 45.2 159 48.1 159 51.7ZM153.7 51.9C153.7 49.6 153.2 47.7 152.1 46.2C151 44.6 149.4 43.9 147.5 43.9C146.2 43.9 145 44.3 144 45.2C142.9 46.1 142.2 47.2 141.9 48.6C141.7 49.3 141.7 49.8 141.7 50.2L141.7 54.1C141.7 55.8 142.2 57.3 143.3 58.5C144.4 59.7 145.7 60.3 147.4 60.3C149.4 60.3 150.9 59.5 152 58C153.1 56.4 153.7 54.4 153.7 51.9Z" />
			<path id="Layer" fill-rule="evenodd" class="shp1" d="M186.4 51.7C186.4 55.7 185.3 58.9 183.1 61.2C181.1 63.3 178.7 64.3 175.8 64.3C172.7 64.3 170.4 63.2 169.1 60.9L169 60.9L169 73.4L163.7 73.4L163.7 48C163.7 45.5 163.6 42.9 163.5 40.2L168.1 40.2L168.4 43.9L168.5 43.9C170.3 41.1 172.9 39.7 176.5 39.7C179.3 39.7 181.6 40.8 183.5 43C185.4 45.2 186.4 48.1 186.4 51.7ZM181 51.9C181 49.6 180.5 47.7 179.4 46.2C178.3 44.6 176.7 43.9 174.8 43.9C173.5 43.9 172.3 44.3 171.3 45.2C170.2 46.1 169.5 47.2 169.2 48.6C169 49.3 169 49.8 169 50.2L169 54.1C169 55.8 169.5 57.3 170.6 58.5C171.7 59.7 173 60.3 174.7 60.3C176.7 60.3 178.2 59.5 179.3 58C180.4 56.4 181 54.4 181 51.9Z" />
			<path id="Layer" class="shp1" d="M216.9 54.7C216.9 57.5 215.9 59.8 214 61.5C211.9 63.4 208.9 64.4 205 64.4C201.5 64.4 198.6 63.7 196.5 62.4L197.7 58C200 59.4 202.6 60.1 205.3 60.1C207.3 60.1 208.8 59.7 209.9 58.8C211 57.9 211.6 56.7 211.6 55.2C211.6 53.9 211.1 52.7 210.2 51.8C209.3 50.9 207.8 50 205.6 49.3C199.8 47.2 197 44 197 39.9C197 37.2 198 35 200 33.3C202 31.6 204.7 30.7 208.1 30.7C211.1 30.7 213.6 31.2 215.6 32.3L214.3 36.6C212.4 35.6 210.3 35.1 208 35.1C206.1 35.1 204.7 35.6 203.7 36.5C202.8 37.3 202.4 38.3 202.4 39.5C202.4 40.8 202.9 41.9 203.9 42.7C204.8 43.5 206.4 44.3 208.7 45.2C211.5 46.3 213.6 47.7 215 49.2C216.2 50.5 216.9 52.4 216.9 54.7Z" />
			<path id="Layer" class="shp1" d="M234.3 44.2L228.5 44.2L228.5 55.7C228.5 58.6 229.5 60.1 231.6 60.1C232.5 60.1 233.3 60 233.9 59.9L234 63.9C233 64.3 231.6 64.5 229.9 64.5C227.8 64.5 226.2 63.9 225 62.6C223.8 61.3 223.2 59.2 223.2 56.2L223.2 44.3L219.7 44.3L219.7 40.4L223.2 40.4L223.2 36.1L228.4 34.5L228.4 40.4L234.2 40.4L234.2 44.2L234.3 44.2Z" />
			<path id="Layer" fill-rule="evenodd" class="shp1" d="M260.6 51.8C260.6 55.4 259.6 58.4 257.5 60.8C255.3 63.2 252.4 64.4 248.8 64.4C245.3 64.4 242.5 63.2 240.5 60.9C238.4 58.6 237.4 55.7 237.4 52.2C237.4 48.5 238.5 45.5 240.6 43.2C242.7 40.9 245.6 39.7 249.2 39.7C252.7 39.7 255.5 40.9 257.6 43.2C259.6 45.4 260.6 48.3 260.6 51.8ZM255.1 52C255.1 49.8 254.6 48 253.7 46.4C252.6 44.5 251 43.6 249 43.6C246.9 43.6 245.3 44.5 244.2 46.4C243.3 48 242.8 49.9 242.8 52.1C242.8 54.3 243.3 56.1 244.2 57.7C245.3 59.6 246.9 60.5 249 60.5C251 60.5 252.6 59.5 253.7 57.6C254.6 56.1 255.1 54.2 255.1 52Z" />
			<path id="Layer" class="shp1" d="M277.7 44.8C277.2 44.7 276.6 44.7 276 44.7C274.1 44.7 272.7 45.4 271.7 46.8C270.8 48 270.4 49.6 270.4 51.5L270.4 63.9L265.1 63.9L265.1 47.7C265.1 45 265 42.5 264.9 40.3L269.5 40.3L269.7 44.8L269.8 44.8C270.4 43.2 271.2 42 272.4 41.1C273.6 40.3 274.8 39.8 276.2 39.8C276.7 39.8 277.1 39.8 277.5 39.9L277.5 44.8L277.7 44.8Z" />
			<path id="Layer" fill-rule="evenodd" class="shp1" d="M301.3 50.9C301.3 51.8 301.2 52.6 301.1 53.3L285.3 53.3C285.4 55.6 286.1 57.4 287.6 58.7C288.9 59.8 290.7 60.3 292.8 60.3C295.1 60.3 297.3 59.9 299.2 59.2L300 62.8C297.8 63.8 295.1 64.3 292 64.3C288.3 64.3 285.4 63.2 283.3 61.1C281.2 58.9 280.1 56 280.1 52.4C280.1 48.8 281.1 45.9 283 43.5C285 41 287.8 39.7 291.3 39.7C294.7 39.7 297.3 41 299.1 43.5C300.6 45.5 301.3 48 301.3 50.9ZM296.3 49.6C296.3 48 296 46.7 295.3 45.6C294.4 44.1 293 43.4 291.1 43.4C289.4 43.4 288 44.1 286.9 45.5C286 46.6 285.5 48 285.3 49.6L296.3 49.6Z" />
		</g>
	</g>
</svg>