<svg xmlns="http://www.w3.org/2000/svg" viewBox="0 0 329 93.3"><defs><style>.cls-1{fill:gray;}.cls-2{fill:#fff;}</style></defs><title>Asset 2</title><g id="Layer_2" data-name="Layer 2"><g id="Layer_1-2" data-name="Layer 1"><path class="cls-1" d="M310.1,93.3H18.9A19,19,0,0,1,0,74.4V18.9A19,19,0,0,1,18.9,0H310.1A19,19,0,0,1,329,18.9V74.4A18.88,18.88,0,0,1,310.1,93.3Z"/><path class="cls-2" d="M72.1,46c-.1-7.9,6.5-11.8,6.8-12a14.48,14.48,0,0,0-11.6-6.2c-4.9-.5-9.6,2.9-12.1,2.9s-6.4-2.9-10.5-2.8a15.38,15.38,0,0,0-13,7.9c-5.6,9.7-1.4,23.9,3.9,31.7,2.7,3.8,5.8,8.1,9.9,7.9s5.5-2.6,10.4-2.6,6.2,2.6,10.4,2.5,7-3.8,9.6-7.7a30.64,30.64,0,0,0,4.4-8.9c.1-.1-8.2-3.2-8.2-12.7"/><path class="cls-2" d="M64.1,22.6a14,14,0,0,0,3.2-10.1c-3.1.1-7,2.2-9.3,4.8-2,2.3-3.8,6.1-3.3,9.7a11.47,11.47,0,0,0,9.4-4.4"/><path class="cls-2" d="M130.3,61.6h-5.6L121.6,52H110.9L108,61.6h-5.5l10.6-32.8h6.5Zm-9.7-13.7-2.8-8.6c-.3-.9-.9-2.9-1.7-6.2H116c-.3,1.4-.9,3.5-1.6,6.2l-2.7,8.6Z"/><path class="cls-2" d="M157.5,49.4c0,4-1.1,7.2-3.3,9.5a9.61,9.61,0,0,1-7.3,3.1c-3.1,0-5.4-1.1-6.7-3.4h-.1V71.1h-5.3V45.7c0-2.5-.1-5.1-.2-7.8h4.6l.3,3.7h.1a9.42,9.42,0,0,1,15-.9c2,2.2,2.9,5.1,2.9,8.7m-5.3.2a9.37,9.37,0,0,0-1.6-5.7,5.26,5.26,0,0,0-4.6-2.3,5.08,5.08,0,0,0-3.5,1.3,5.82,5.82,0,0,0-2.1,3.4,5.29,5.29,0,0,0-.2,1.6v3.9a6.29,6.29,0,0,0,1.6,4.4,5.24,5.24,0,0,0,4.1,1.8,5.38,5.38,0,0,0,4.6-2.3,10.47,10.47,0,0,0,1.7-6.1"/><path class="cls-2" d="M184.9,49.4c0,4-1.1,7.2-3.3,9.5a9.61,9.61,0,0,1-7.3,3.1c-3.1,0-5.4-1.1-6.7-3.4h-.1V71.1h-5.3V45.7c0-2.5-.1-5.1-.2-7.8h4.6l.3,3.7h.1a9.42,9.42,0,0,1,15-.9,12.87,12.87,0,0,1,2.9,8.7m-5.4.2a9.37,9.37,0,0,0-1.6-5.7,5.26,5.26,0,0,0-4.6-2.3,5.08,5.08,0,0,0-3.5,1.3,5.82,5.82,0,0,0-2.1,3.4,5.29,5.29,0,0,0-.2,1.6v3.9a6.29,6.29,0,0,0,1.6,4.4,5.24,5.24,0,0,0,4.1,1.8,5.38,5.38,0,0,0,4.6-2.3,10.47,10.47,0,0,0,1.7-6.1"/><path class="cls-2" d="M215.4,52.4a8.76,8.76,0,0,1-2.9,6.8c-2.1,1.9-5.1,2.9-9,2.9a16.19,16.19,0,0,1-8.5-2l1.2-4.4a14.51,14.51,0,0,0,7.6,2.1,7,7,0,0,0,4.6-1.3,4.46,4.46,0,0,0,1.7-3.6,4.76,4.76,0,0,0-1.4-3.4,11.37,11.37,0,0,0-4.6-2.5c-5.8-2.1-8.6-5.3-8.6-9.4a8.26,8.26,0,0,1,3-6.6,12.11,12.11,0,0,1,8.1-2.6,15.42,15.42,0,0,1,7.5,1.6l-1.3,4.3a13.32,13.32,0,0,0-6.3-1.5,6.17,6.17,0,0,0-4.3,1.4,3.8,3.8,0,0,0-1.3,3,3.93,3.93,0,0,0,1.5,3.2,17.05,17.05,0,0,0,4.8,2.5,17.11,17.11,0,0,1,6.3,4,8,8,0,0,1,1.9,5.5"/><path class="cls-2" d="M232.8,41.9H227V53.4c0,2.9,1,4.4,3.1,4.4a14,14,0,0,0,2.3-.2l.1,4a11.46,11.46,0,0,1-4.1.6,6.26,6.26,0,0,1-4.9-1.9c-1.2-1.3-1.8-3.4-1.8-6.4V42h-3.5V38.1h3.5V33.8l5.2-1.6v5.9h5.8v3.8Z"/><path class="cls-2" d="M259.1,49.5a13.14,13.14,0,0,1-3.1,9,11.24,11.24,0,0,1-8.7,3.6,10.5,10.5,0,0,1-8.3-3.5,12.38,12.38,0,0,1-3.1-8.7,12.86,12.86,0,0,1,3.2-9,11.15,11.15,0,0,1,8.6-3.5,10.86,10.86,0,0,1,8.4,3.5,12.35,12.35,0,0,1,3,8.6m-5.5.2a11.07,11.07,0,0,0-1.4-5.6,5.43,5.43,0,0,0-9.5,0,11.46,11.46,0,0,0-1.4,5.7,11.07,11.07,0,0,0,1.4,5.6,5.2,5.2,0,0,0,4.8,2.8,5.25,5.25,0,0,0,4.7-2.9,10.81,10.81,0,0,0,1.4-5.6"/><path class="cls-2" d="M276.2,42.5a9.15,9.15,0,0,0-1.7-.1,4.92,4.92,0,0,0-4.3,2.1,7.69,7.69,0,0,0-1.3,4.7V61.6h-5.3V45.4c0-2.7-.1-5.2-.2-7.4H268l.2,4.5h.1a7.79,7.79,0,0,1,2.6-3.7,6.7,6.7,0,0,1,3.8-1.3,5.28,5.28,0,0,1,1.3.1v4.9Z"/><path class="cls-2" d="M299.8,48.6a16.59,16.59,0,0,1-.2,2.4H283.8a7.14,7.14,0,0,0,2.3,5.4,7.88,7.88,0,0,0,5.2,1.6,18.68,18.68,0,0,0,6.4-1.1l.8,3.6a19.36,19.36,0,0,1-8,1.5,11.78,11.78,0,0,1-8.7-3.2,12.11,12.11,0,0,1-3.2-8.7,13.79,13.79,0,0,1,2.9-8.9,10.12,10.12,0,0,1,8.3-3.8,9.06,9.06,0,0,1,7.8,3.8,12,12,0,0,1,2.2,7.4m-5-1.3a7.21,7.21,0,0,0-1-4,4.51,4.51,0,0,0-4.2-2.2,5.12,5.12,0,0,0-4.2,2.1,7.89,7.89,0,0,0-1.6,4.1h11Z"/></g></g></svg>