<?xml version="1.0" encoding="utf-8"?>
<!-- Generator: Adobe Illustrator 25.0.0, SVG Export Plug-In . SVG Version: 6.00 Build 0)  -->
<svg version="1.1" id="Capa_1" xmlns="http://www.w3.org/2000/svg" xmlns:xlink="http://www.w3.org/1999/xlink" x="0px" y="0px"
	 viewBox="0 0 400 400" style="enable-background:new 0 0 400 400;" xml:space="preserve">
<style type="text/css">
	.st0{fill:#FFF;}
</style>
<g>
	<g>
		<g>
			<g>
				<g>
					<path class="st0" d="M229.6,285.5H96.3c-14.3,0-26-11.7-26-26V141.4c0-14.3,11.7-26,26-26H303c14.3,0,26,11.7,26,26v70.4
						c0,3.7-3,6.7-6.7,6.7s-6.7-3-6.7-6.7v-70.4c0-7-5.7-12.6-12.6-12.6H96.3c-7,0-12.6,5.7-12.6,12.6v118.2c0,7,5.7,12.6,12.6,12.6
						h133.3c3.7,0,6.7,3,6.7,6.7C236.3,282.5,233.3,285.5,229.6,285.5z"/>
				</g>
			</g>
			<g>
				<g>
					<path class="st0" d="M119.2,263.8h-13.8c-3.7,0-6.7-3-6.7-6.7c0-3.7,3-6.7,6.7-6.7h13.8c3.7,0,6.7,3,6.7,6.7
						C125.9,260.8,122.9,263.8,119.2,263.8z"/>
				</g>
			</g>
			<g>
				<g>
					<rect x="77" y="160.6" class="st0" width="245.2" height="25.8"/>
				</g>
			</g>
		</g>
	</g>
	<g>
		<g>
			<path class="st0" d="M326.9,284.6c-0.4-0.4-1-0.7-1.6-0.7l0,0c-1.2,0-2.3,1-2.3,2.3c0,4.2-3.4,7.6-7.6,7.6l-47.4,0.1l0,0
				c-2,0-3.9-0.8-5.4-2.2c-1.4-1.4-2.2-3.3-2.2-5.4l-0.1-27c0-2,0.8-3.9,2.2-5.4c1.4-1.4,3.3-2.2,5.4-2.2l47.4-0.1l0,0
				c2,0,3.9,0.8,5.4,2.2c1.4,1.4,2.2,3.3,2.2,5.4v12.2c0,0.6,0.2,1.2,0.7,1.6c0.4,0.4,1,0.7,1.6,0.7l0,0c0.6,0,1.2-0.2,1.6-0.7
				c0.4-0.4,0.7-1,0.7-1.6v-12.2c0-3.2-1.3-6.3-3.6-8.6c-2.3-2.3-5.3-3.5-8.5-3.5l0,0h-5v-12.6c0-10.1-8.4-18.2-18.7-18.2
				c0,0,0,0-0.1,0c-5,0-9.7,1.9-13.2,5.4s-5.5,8.1-5.5,13v12.6h-5c-6.7,0-12.1,5.5-12.1,12.2l0.1,27c0,3.2,1.3,6.3,3.6,8.6
				c2.3,2.3,5.3,3.5,8.6,3.5l0,0l47.3-0.1c3.2,0,6.3-1.3,8.6-3.6c2.3-2.3,3.5-5.4,3.5-8.6C327.5,285.6,327.3,285,326.9,284.6z
				 M291.6,220.9c7.8,0,14.1,6.1,14.2,13.7v12.6l-28.3,0.1v-12.6c0-3.7,1.5-7.1,4.1-9.7C284.2,222.3,287.8,220.9,291.6,220.9
				L291.6,220.9z"/>
			<path class="st0" d="M268.1,300.6c-3.8,0-7.4-1.5-10.1-4.1c-2.7-2.7-4.2-6.3-4.2-10.1l-0.1-27c0-7.9,6.3-14.3,14.2-14.3h2.9
				v-10.5c0-5.5,2.1-10.6,6.1-14.5c3.9-3.9,9.1-6,14.7-6c11.5,0,20.8,9.1,20.9,20.3v10.5h2.9c3.8,0,7.4,1.5,10.1,4.1
				c2.7,2.7,4.2,6.3,4.2,10.1v12.2c0,1.2-0.4,2.3-1.3,3.1c-0.8,0.8-1.9,1.3-3.1,1.3s-2.3-0.5-3.1-1.3c-0.8-0.8-1.3-1.9-1.3-3.1
				v-12.2c0-1.5-0.6-2.8-1.6-3.9c-1-1-2.4-1.6-3.9-1.6l-47.4,0.1c-1.5,0-2.8,0.6-3.9,1.6c-1,1-1.6,2.4-1.6,3.9l0.1,27
				c0,1.5,0.6,2.8,1.6,3.9c1,1,2.4,1.6,3.9,1.6l47.4-0.1c1.5,0,2.8-0.6,3.9-1.6c1-1,1.6-2.4,1.6-3.9c0-2.4,2-4.4,4.4-4.4
				c1.2,0,2.3,0.5,3.1,1.3c0.8,0.8,1.3,1.9,1.3,3.1c0,3.8-1.5,7.4-4.1,10.1c-2.7,2.7-6.3,4.2-10.1,4.2L268.1,300.6z M291.6,218.4
				c-4.5,0-8.6,1.7-11.8,4.8c-3.1,3.1-4.8,7.1-4.8,11.4v14.7h-7.1c-5.5,0-10,4.5-10,10.1l0.1,27c0,2.7,1.1,5.2,3,7.1
				s4.4,2.9,7.1,2.9l47.4-0.1c2.7,0,5.2-1.1,7.1-3s2.9-4.4,2.9-7.1v-0.1h-0.1c-0.2,2.7-1.2,5.2-3,7s-4.3,2.9-6.8,2.9l-47.4,0.1
				c-2.6,0-5-1-6.9-2.8c-1.8-1.8-2.9-4.3-2.9-6.9l-0.1-27c0-2.6,1-5,2.8-6.9c1.8-1.8,4.3-2.9,6.9-2.9l47.3-0.1c2.6,0,5,1,6.9,2.8
				c1.8,1.8,2.9,4.3,2.9,6.8v12.2l0,0l0.3,0.1v-12.3c0-2.7-1.1-5.2-3-7.1c-1.9-1.9-4.4-2.9-7.1-2.9h-7.1v-14.7
				C308.2,225.7,300.7,218.4,291.6,218.4z M275.3,249.4v-14.7c0-4.2,1.7-8.2,4.8-11.2c3.1-3,7.1-4.7,11.5-4.7h0.1
				c8.9,0,16.2,7.1,16.3,15.8v14.7L275.3,249.4z M291.5,223c-3.2,0-6.3,1.2-8.5,3.5c-2.3,2.2-3.5,5.1-3.5,8.2v10.5l24.1-0.1v-10.5
				C303.6,228.2,298.2,223,291.5,223L291.5,223z"/>
		</g>
		<g>
			<path class="st0" d="M290.7,284.3h2.1c1.3,0,2-0.7,2-2v-7.6c1.3-1,2.1-2.5,2.1-4.2c0-2.8-2.3-5.1-5.1-5.1c-2.8,0-5.1,2.3-5.1,5.1
				c0,1.7,0.8,3.2,2.1,4.2v7.6C288.7,283.7,289.3,284.3,290.7,284.3z"/>
			<path class="st0" d="M292.7,286.4h-2.1c-2.5,0-4.1-1.6-4.1-4.1v-6.6c-1.3-1.4-2.1-3.2-2.1-5.1c0-4,3.2-7.2,7.2-7.2
				s7.2,3.2,7.2,7.2c0,1.9-0.8,3.8-2.1,5.1v6.6C296.8,284.8,295.2,286.4,292.7,286.4z M290.8,282.1h1.8v-8.5l0.9-0.6
				c0.8-0.6,1.2-1.5,1.2-2.5c0-1.6-1.3-3-3-3s-3,1.3-3,3c0,1,0.5,1.9,1.2,2.5l0.9,0.6V282.1z"/>
		</g>
	</g>
</g>
</svg>
