<svg xmlns="http://www.w3.org/2000/svg" viewBox="0 0 264 187" width="264" height="187">
	<style>
		tspan { white-space:pre }
		.shp0 { fill: #ffffff } 
	</style>
	<g id="Layer">
		<g id="Layer">
			<g id="Layer">
				<g id="Layer">
					<g id="Layer">
						<path id="Layer" class="shp0" d="M161.6 170.5L28.3 170.5C14 170.5 2.3 158.8 2.3 144.5L2.3 26.4C2.3 12.1 14 0.4 28.3 0.4L235 0.4C249.3 0.4 261 12.1 261 26.4L261 96.8C261 100.5 258 103.5 254.3 103.5C250.6 103.5 247.6 100.5 247.6 96.8L247.6 26.4C247.6 19.4 241.9 13.8 235 13.8L28.3 13.8C21.3 13.8 15.7 19.5 15.7 26.4L15.7 144.6C15.7 151.6 21.4 157.2 28.3 157.2L161.6 157.2C165.3 157.2 168.3 160.2 168.3 163.9C168.3 167.5 165.3 170.5 161.6 170.5Z" />
					</g>
				</g>
				<g id="Layer">
					<g id="Layer">
						<path id="Layer" class="shp0" d="M51.2 148.8L37.4 148.8C33.7 148.8 30.7 145.8 30.7 142.1C30.7 138.4 33.7 135.4 37.4 135.4L51.2 135.4C54.9 135.4 57.9 138.4 57.9 142.1C57.9 145.8 54.9 148.8 51.2 148.8Z" />
					</g>
				</g>
				<g id="Layer">
					<g id="Layer">
						<path id="Layer" class="shp0" d="M9 45.6L254.2 45.6L254.2 71.4L9 71.4L9 45.6Z" />
					</g>
				</g>
			</g>
		</g>
		<g id="Layer">
			<g id="Layer">
				<path id="Layer" fill-rule="evenodd" class="shp0" d="M259.5 171.3C259.5 174.5 258.3 177.6 256 179.9C253.7 182.2 250.6 183.5 247.4 183.5L200.1 183.6C196.8 183.6 193.8 182.4 191.5 180.1C189.2 177.8 187.9 174.7 187.9 171.5L187.8 144.5C187.8 137.8 193.2 132.3 199.9 132.3L204.9 132.3L204.9 119.7C204.9 114.8 206.9 110.2 210.4 106.7C213.9 103.2 218.6 101.3 223.6 101.3C223.7 101.3 223.7 101.3 223.7 101.3C234 101.3 242.4 109.4 242.4 119.5L242.4 132.1L247.4 132.1C250.6 132.1 253.6 133.3 255.9 135.6C258.2 137.9 259.5 141 259.5 144.2L259.5 156.4C259.5 157 259.2 157.6 258.8 158C258.4 158.5 257.8 158.7 257.2 158.7C256.6 158.7 256 158.4 255.6 158C255.1 157.6 254.9 157 254.9 156.4L254.9 144.2C254.9 142.1 254.1 140.2 252.7 138.8C251.2 137.4 249.3 136.6 247.3 136.6L199.9 136.7C197.8 136.7 195.9 137.5 194.5 138.9C193.1 140.4 192.3 142.3 192.3 144.3L192.4 171.3C192.4 173.4 193.2 175.3 194.6 176.7C196.1 178.1 198 178.9 200 178.9L247.4 178.8C251.6 178.8 255 175.4 255 171.2C255 169.9 256.1 168.9 257.3 168.9C257.9 168.9 258.5 169.2 258.9 169.6C259.3 170 259.5 170.6 259.5 171.3ZM223.6 105.9C219.8 105.9 216.2 107.3 213.6 110C211 112.6 209.5 116 209.5 119.7L209.5 132.3L237.8 132.2L237.8 119.6C237.7 112 231.4 105.9 223.6 105.9Z" />
				<path id="Layer" fill-rule="evenodd" class="shp0" d="M200.1 185.6C196.3 185.6 192.7 184.1 190 181.5C187.3 178.8 185.8 175.2 185.8 171.4L185.7 144.4C185.7 136.5 192 130.1 199.9 130.1L202.8 130.1L202.8 119.6C202.8 114.1 204.9 109 208.9 105.1C212.8 101.2 218 99.1 223.6 99.1C235.1 99.1 244.4 108.2 244.5 119.4L244.5 129.9L247.4 129.9C251.2 129.9 254.8 131.4 257.5 134C260.2 136.7 261.7 140.3 261.7 144.1L261.7 156.3C261.7 157.5 261.3 158.6 260.4 159.4C259.6 160.2 258.5 160.7 257.3 160.7C256.1 160.7 255 160.2 254.2 159.4C253.4 158.6 252.9 157.5 252.9 156.3L252.9 144.1C252.9 142.6 252.3 141.3 251.3 140.2C250.3 139.2 248.9 138.6 247.4 138.6L200 138.7C198.5 138.7 197.2 139.3 196.1 140.3C195.1 141.3 194.5 142.7 194.5 144.2L194.6 171.2C194.6 172.7 195.2 174 196.2 175.1C197.2 176.1 198.6 176.7 200.1 176.7L247.5 176.6C249 176.6 250.3 176 251.4 175C252.4 174 253 172.6 253 171.1C253 168.7 255 166.7 257.4 166.7C258.6 166.7 259.7 167.2 260.5 168C261.3 168.8 261.8 169.9 261.8 171.1C261.8 174.9 260.3 178.5 257.7 181.2C255 183.9 251.4 185.4 247.6 185.4L200.1 185.6ZM223.6 103.4C219.1 103.4 215 105.1 211.8 108.2C208.7 111.3 207 115.3 207 119.6L207 134.3L199.9 134.3C194.4 134.3 189.9 138.8 189.9 144.4L190 171.4C190 174.1 191.1 176.6 193 178.5C194.9 180.4 197.4 181.4 200.1 181.4L247.5 181.3C250.2 181.3 252.7 180.2 254.6 178.3C256.5 176.4 257.5 173.9 257.5 171.2L257.5 171.1L257.4 171.1C257.2 173.8 256.2 176.3 254.4 178.1C252.6 179.9 250.1 181 247.6 181L200.2 181.1C197.6 181.1 195.2 180.1 193.3 178.3C191.5 176.5 190.4 174 190.4 171.4L190.3 144.4C190.3 141.8 191.3 139.4 193.1 137.5C194.9 135.7 197.4 134.6 200 134.6L247.3 134.5C249.9 134.5 252.3 135.5 254.2 137.3C256 139.1 257.1 141.6 257.1 144.1L257.1 156.3L257.4 156.4L257.4 144.1C257.4 141.4 256.3 138.9 254.4 137C252.5 135.1 250 134.1 247.3 134.1L240.2 134.1L240.2 119.4C240.2 110.7 232.7 103.4 223.6 103.4ZM207.3 134.4L207.3 119.7C207.3 115.5 209 111.5 212.1 108.5C215.2 105.5 219.2 103.8 223.6 103.8L223.7 103.8C232.6 103.8 239.9 110.9 240 119.6L240 134.3L207.3 134.4ZM215 111.5C212.7 113.7 211.5 116.6 211.5 119.7L211.5 130.2L235.6 130.1L235.6 119.6C235.6 113.2 230.2 108 223.5 108C220.3 108 217.2 109.2 215 111.5Z" />
			</g>
			<g id="Layer">
				<path id="Layer" class="shp0" d="M222.7 169.3L224.8 169.3C226.1 169.3 226.8 168.6 226.8 167.3L226.8 159.7C228.1 158.7 228.9 157.2 228.9 155.5C228.9 152.7 226.6 150.4 223.8 150.4C221 150.4 218.7 152.7 218.7 155.5C218.7 157.2 219.5 158.7 220.8 159.7L220.8 167.3C220.7 168.7 221.3 169.3 222.7 169.3Z" />
				<path id="Layer" fill-rule="evenodd" class="shp0" d="M224.7 171.4L222.6 171.4C220.1 171.4 218.5 169.8 218.5 167.3L218.5 160.7C217.2 159.3 216.4 157.5 216.4 155.6C216.4 151.6 219.6 148.4 223.6 148.4C227.6 148.4 230.8 151.6 230.8 155.6C230.8 157.5 230 159.4 228.7 160.7L228.7 167.3C228.8 169.8 227.2 171.4 224.7 171.4ZM224.6 167.1L224.6 158.6L225.5 158C226.3 157.4 226.7 156.5 226.7 155.5C226.7 153.9 225.4 152.5 223.7 152.5C222 152.5 220.7 153.8 220.7 155.5C220.7 156.5 221.2 157.4 221.9 158L222.8 158.6L222.8 167.1L224.6 167.1Z" />
			</g>
		</g>
	</g>
</svg>