<?xml version="1.0" encoding="utf-8"?>
<!-- Generator: Adobe Illustrator 24.1.2, SVG Export Plug-In . SVG Version: 6.00 Build 0)  -->
<svg version="1.1" id="Capa_1" xmlns="http://www.w3.org/2000/svg" xmlns:xlink="http://www.w3.org/1999/xlink" x="0px" y="0px"
	 viewBox="0 0 283.46 283.46" style="enable-background:new 0 0 283.46 283.46;" xml:space="preserve">
<style type="text/css">
	.st0{fill:#008E39;}
</style>
<g>
	<path class="st0" d="M100.07,153.94c-2.65-3.31-7.28-4.5-11.25-2.78l-10.19,4.5c-2.12,0.93-3.71,2.78-4.24,5.03
		c-0.53,2.25,0,4.63,1.32,6.36l38.26,48.06c1.72,2.12,4.24,3.31,7.02,3.31h9c3.18,0,6.22-1.59,7.81-4.37l97.45-168.81
		c1.32-2.38,1.32-5.16,0-7.55c-1.32-2.38-3.84-3.84-6.62-3.84h-11.78c-3.97,0-7.68,2.12-9.67,5.56l-83.55,144.58L100.07,153.94z"/>
	<path class="st0" d="M257.89,122.56c9,54.55-21.32,110.95-77.59,130.68c-51.24,17.87-109.63-2.65-138.36-48.72
		C4.21,143.88,28.31,65.36,90.93,35.44c22.38-10.72,46.47-13.64,69.38-9.93c2.12,0.4,4.24-0.26,5.69-1.85l3.05-3.05
		c3.84-3.84,1.72-10.46-3.57-11.39c-33.5-6.09-69.64,0.4-101.02,22.11C16.92,64.3-4.26,125.87,12.95,181.08
		c26.48,85.13,125.25,121.41,200.19,74.94c47.13-29.13,71.1-85.13,61.04-139.02c-0.93-5.3-7.55-7.41-11.39-3.57l-3.18,3.18
		C258.29,118.32,257.63,120.44,257.89,122.56z"/>
</g>
</svg>
