<svg xmlns="http://www.w3.org/2000/svg" viewBox="0 0 311 189" width="311" height="189">
	<style>
		tspan { white-space:pre }
		.shp0 { fill: #ffffff } 
	</style>
	<g id="Layer">
		<g id="Layer">
			<g id="Layer">
				<g id="Layer">
					<path id="Layer" class="shp0" d="M163.1 173.6L29.5 173.6C15.1 173.6 3.4 161.9 3.4 147.5L3.4 29.1C3.4 14.7 15.1 3 29.5 3L236.6 3C251 3 262.7 14.7 262.7 29.1L262.7 99.7C262.7 103.4 259.7 106.4 256 106.4C252.3 106.4 249.3 103.4 249.3 99.7L249.3 29.1C249.3 22.1 243.6 16.5 236.7 16.5L29.5 16.5C22.5 16.5 16.9 22.2 16.9 29.1L16.9 147.6C16.9 154.6 22.6 160.2 29.5 160.2L163.1 160.2C166.8 160.2 169.8 163.2 169.8 166.9C169.8 170.6 166.8 173.6 163.1 173.6Z" />
				</g>
				<g id="Layer">
					<path id="Layer" class="shp0" d="M52.4 151.9L38.6 151.9C34.9 151.9 31.9 148.9 31.9 145.2C31.9 141.5 34.9 138.5 38.6 138.5L52.4 138.5C56.1 138.5 59.1 141.5 59.1 145.2C59.1 148.9 56.1 151.9 52.4 151.9Z" />
				</g>
				<g id="Layer">
					<path id="Layer" class="shp0" d="M10.1 48.4L255.9 48.4L255.9 74.3L10.1 74.3L10.1 48.4Z" />
				</g>
			</g>
		</g>
		<path id="Layer" fill-rule="evenodd" class="shp0" d="M262.9 141.8C262.9 166.4 242.9 186.4 218.3 186.4C193.7 186.4 173.7 166.4 173.7 141.8C173.7 117.2 193.7 97.2 218.3 97.2C243 97.2 263 117.3 262.9 141.8ZM253 141.9C253 122.8 237.5 107.2 218.3 107.2C199.2 107.2 183.6 122.7 183.6 141.9C183.6 161 199.1 176.6 218.3 176.6C237.5 176.6 253.1 161 253 141.9Z" />
		<g id="Layer">
			<g id="Layer">
				<path id="Layer" class="shp0" d="M205.8 133.9C205.8 132.8 205.9 131.6 206.2 130.5C206.5 129.4 207 128.3 207.7 127.3C208.4 126.3 209.4 125.4 210.6 124.7C211.8 123.9 213.3 123.4 215 123L214.9 118.2C214.9 117.9 215 117.7 215.2 117.5C215.4 117.3 215.6 117.2 215.9 117.2L220.8 117.1C221.1 117.1 221.3 117.2 221.6 117.4C221.8 117.6 221.9 117.8 221.9 118.1L222 122.6C223.4 122.6 224.6 122.7 225.7 122.9C226.8 123 227.9 123.2 228.9 123.4C229.2 123.5 229.4 123.6 229.6 123.8C229.8 124 229.9 124.2 229.9 124.5L230 128.3C230 128.6 229.9 128.8 229.7 129C229.5 129.2 229.3 129.3 229 129.3L228.9 129.3C228.4 129.2 227.7 129.2 226.8 129.2C225.9 129.2 225 129.1 224.1 129.1C223.2 129.1 222.3 129 221.5 129C220.7 129 220 129 219.5 129C217.1 129.1 215.5 129.5 214.7 130.3C213.9 131.1 213.5 132.3 213.5 133.9C213.5 134.4 213.6 134.9 213.7 135.3C213.9 135.7 214.1 136.1 214.4 136.5C214.7 136.9 215.2 137.3 215.8 137.7C216.4 138.1 217.1 138.5 218 139.1L225.1 143.1C226.4 143.8 227.4 144.5 228.2 145.3C229 146 229.7 146.8 230.2 147.6C230.7 148.4 231 149.2 231.3 150.1C231.5 151 231.6 151.9 231.7 152.8C231.7 154 231.6 155.2 231.3 156.3C231 157.4 230.5 158.3 229.8 159.2C229.1 160.1 228.2 160.8 227.1 161.4C226 162 224.6 162.5 222.9 162.8L223 167.3C223 167.6 222.9 167.8 222.7 168C222.5 168.2 222.2 168.3 222 168.3L217.1 168.4C216.8 168.4 216.6 168.3 216.4 168.1C216.2 167.9 216.1 167.7 216.1 167.4L216 163.2C214.5 163.2 213.1 163.1 211.7 163C210.3 162.9 209.2 162.7 208.5 162.6C208.2 162.5 208 162.4 207.8 162.3C207.6 162.1 207.5 161.9 207.5 161.6L207.4 157.7C207.4 157.4 207.5 157.2 207.6 157C207.8 156.8 208 156.7 208.3 156.7L208.4 156.7C210.2 156.8 211.9 156.9 213.7 157C215.4 157 217.2 157 218.9 157C220.9 157 222.3 156.6 223.2 155.9C224.1 155.2 224.5 154.3 224.4 153.1C224.4 152.7 224.3 152.3 224.2 151.9C224.1 151.5 223.8 151.2 223.5 150.8C223.2 150.4 222.7 150.1 222.1 149.7C221.5 149.3 220.8 148.9 220 148.5L213.6 145.1C212.1 144.3 210.9 143.5 209.9 142.7C208.9 141.9 208.1 141.1 207.6 140.2C207 139.3 206.6 138.4 206.4 137.5C206 136 205.8 135 205.8 133.9L205.8 133.9Z" />
			</g>
		</g>
		<g id="Layer">
			<path id="Layer" class="shp0" d="M288 146.5C284.8 146.5 282.2 143.9 282.2 140.7L282.2 60.4C282.2 57.2 284.8 54.6 288 54.6C291.2 54.6 293.8 57.2 293.8 60.4L293.8 140.7C293.8 143.9 291.2 146.5 288 146.5Z" />
		</g>
		<g id="Layer">
			<path id="Layer" class="shp0" d="M272.7 81.5C271.3 81.5 269.9 81 268.7 79.9C266.4 77.7 266.2 74 268.4 71.7L283.2 55.9C284.3 54.7 285.8 54.1 287.3 54.1C288.9 54.1 290.4 54.7 291.5 55.8L307.3 71.6C309.6 73.9 309.6 77.5 307.3 79.8C305 82.1 301.4 82.1 299.1 79.8L287.5 68.2L276.8 79.7C275.8 80.9 274.3 81.5 272.7 81.5Z" />
		</g>
	</g>
</svg>