<svg xmlns="http://www.w3.org/2000/svg" viewBox="0 0 332 96" width="332" height="96">
	<defs>
		<linearGradient id="grd1" gradientUnits="userSpaceOnUse"  x1="55.456" y1="18.728" x2="55.456" y2="82.128">
			<stop offset="0" stop-color="#297bae"  />
			<stop offset="0.248" stop-color="#4691b1"  />
			<stop offset="0.754" stop-color="#7dbab8"  />
			<stop offset="1" stop-color="#93caba"  />
		</linearGradient>
		<linearGradient id="grd2" gradientUnits="userSpaceOnUse"  x1="39.386" y1="35.061" x2="80.119" y2="35.061">
			<stop offset="0" stop-color="#5bb8a7"  />
			<stop offset="1" stop-color="#e3e292"  />
		</linearGradient>
		<linearGradient id="grd3" gradientUnits="userSpaceOnUse"  x1="60.155" y1="50.401" x2="60.155" y2="82.332">
			<stop offset="0" stop-color="#e33730"  />
			<stop offset="0.171" stop-color="#d23942"  />
			<stop offset="0.729" stop-color="#a04179"  />
			<stop offset="1" stop-color="#8d448f"  />
		</linearGradient>
		<linearGradient id="grd4" gradientUnits="userSpaceOnUse"  x1="82.748" y1="41.873" x2="82.748" y2="58.898">
			<stop offset="0" stop-color="#e98278"  />
			<stop offset="0.637" stop-color="#f4b074"  />
			<stop offset="1" stop-color="#f9c672"  />
		</linearGradient>
	</defs>
	<style>
		tspan { white-space:pre }
		.shp0 { fill: #808080 } 
		.shp1 { fill: url(#grd1) } 
		.shp2 { fill: url(#grd2) } 
		.shp3 { fill: url(#grd3) } 
		.shp4 { fill: url(#grd4) } 
		.shp5 { fill: #ffffff } 
	</style>
	<g id="Layer">
		<path id="Layer" class="shp0" d="M311.6 94.7L20.4 94.7C10 94.7 1.5 86.2 1.5 75.8L1.5 20.3C1.5 9.9 10 1.4 20.4 1.4L311.6 1.4C322 1.4 330.5 9.9 330.5 20.3L330.5 75.8C330.5 86.2 322 94.7 311.6 94.7Z" />
		<g id="Layer">
			<g id="Layer">
				<g id="Layer">
					<path id="Layer" class="shp1" d="M39.4 19.7L71.5 19.7L71.5 81.3L39.4 81.3L39.4 19.7Z" />
				</g>
			</g>
			<g id="Layer">
				<g id="Layer">
					<path id="Layer" class="shp2" d="M40.4 19.7L80.1 19.7L80.1 50.4L40.4 50.4L40.4 19.7Z" />
				</g>
			</g>
			<g id="Layer">
				<g id="Layer">
					<path id="Layer" class="shp3" d="M40.2 50.4L80.1 50.4L80.1 81.4L40.2 81.4L40.2 50.4Z" />
				</g>
			</g>
			<g id="Layer">
				<g id="Layer">
					<path id="Layer" class="shp4" d="M71.5 41.9L94 41.9L94 58.9L71.5 58.9L71.5 41.9Z" />
				</g>
			</g>
			<path id="Layer" fill-rule="evenodd" class="shp5" d="M241.6 62.8C240.4 62.8 239.3 62.6 238.3 62.1C237.3 61.7 236.5 61 235.8 60.1L235.6 60.1C235.7 61.2 235.8 62.2 235.8 63.2L235.8 70.8L233 70.8L233 44L235.3 44L235.7 46.5L235.8 46.5C236.5 45.5 237.4 44.8 238.3 44.3C239.3 43.9 240.4 43.6 241.6 43.6C244.1 43.6 246 44.4 247.3 46.1C248.6 47.8 249.3 50.1 249.3 53.1C249.3 56.1 248.6 58.5 247.3 60.2C245.9 61.9 244 62.8 241.6 62.8ZM241.2 46C239.3 46 237.9 46.5 237.1 47.6C236.3 48.6 235.8 50.3 235.8 52.6L235.8 53.2C235.8 55.8 236.2 57.6 237.1 58.8C238 59.9 239.4 60.5 241.3 60.5C242.9 60.5 244.2 59.9 245.1 58.6C246 57.3 246.5 55.5 246.5 53.3C246.5 51 246 49.2 245.1 48C244.1 46.7 242.8 46 241.2 46Z" />
			<path id="Layer" class="shp5" d="M253 36.3L255.8 36.3L255.8 62.5L253 62.5L253 36.3Z" />
			<path id="Layer" fill-rule="evenodd" class="shp5" d="M271.9 62.4L271.3 59.8L271.2 59.8C270.3 61 269.4 61.7 268.4 62.1C267.5 62.5 266.3 62.7 265 62.7C263.2 62.7 261.7 62.2 260.7 61.3C259.7 60.4 259.1 59 259.1 57.3C259.1 53.6 262.1 51.6 268.1 51.4L271.2 51.3L271.2 50.2C271.2 48.8 270.9 47.7 270.3 47C269.7 46.3 268.7 46 267.3 46C265.8 46 264 46.5 262.1 47.4L261.2 45.3C262.1 44.8 263.1 44.4 264.2 44.1C265.3 43.8 266.4 43.7 267.5 43.7C269.7 43.7 271.3 44.2 272.4 45.2C273.5 46.2 274 47.7 274 49.9L274 62.5L271.9 62.5L271.9 62.4ZM265.5 60.5C267.2 60.5 268.6 60 269.6 59.1C270.6 58.1 271.1 56.8 271.1 55.1L271.1 53.4L268.3 53.5C266.1 53.6 264.5 53.9 263.5 54.5C262.5 55.1 262 56.1 262 57.4C262 58.4 262.3 59.2 262.9 59.7C263.6 60.2 264.4 60.5 265.5 60.5Z" />
			<path id="Layer" class="shp5" d="M275.6 44L278.6 44L282.7 54.5C283.6 56.9 284.1 58.6 284.4 59.7L284.5 59.7C284.6 59.1 285 58.1 285.4 56.8C285.9 55.4 287.4 51.2 290 44L293 44L285 65C284.2 67.1 283.3 68.5 282.2 69.4C281.1 70.3 279.9 70.7 278.3 70.7C277.4 70.7 276.6 70.6 275.8 70.4L275.8 68.2C276.4 68.3 277.1 68.4 277.9 68.4C279.8 68.4 281.2 67.3 282 65.2L283 62.6L275.6 44Z" />
			<path id="Layer" fill-rule="evenodd" class="shp5" d="M192.4 50.9C192.4 53.8 190.8 55.1 189.1 56.4C188.6 56.9 188 57.4 188 58.3C188 59.1 188.6 59.6 189 60L190.4 61.1C192.1 62.5 193.7 63.8 193.7 66.5C193.7 70.1 190.2 73.8 183.5 73.8C177.9 73.8 175.2 71.1 175.2 68.3C175.2 66.9 175.9 64.9 178.2 63.6C180.6 62.1 183.9 61.9 185.6 61.8C185.1 61.1 184.4 60.4 184.4 59.2C184.4 58.5 184.6 58.2 184.8 57.7C184.4 57.7 183.9 57.8 183.6 57.8C179.5 57.8 177.2 54.8 177.2 51.7C177.2 49.9 178 48 179.7 46.5C181.9 44.7 184.5 44.4 186.6 44.4L194.6 44.4L192.1 45.8L189.6 45.7C190.5 46.4 192.4 48 192.4 50.9ZM186.8 62.8C186.5 62.8 186.3 62.8 185.9 62.8C185.6 62.8 183.5 62.9 181.8 63.4C180.9 63.7 178.5 64.6 178.5 67.4C178.5 70.1 181.2 72.1 185.3 72.1C189 72.1 191 70.3 191 67.9C191.1 66 189.8 64.9 186.8 62.8ZM188 55.5C188.9 54.6 189 53.4 189 52.7C189 49.9 187.3 45.6 184.1 45.6C183.1 45.6 182 46.1 181.4 46.9C180.7 47.7 180.5 48.8 180.5 49.8C180.5 52.4 182 56.7 185.3 56.7C186.3 56.6 187.3 56.1 188 55.5Z" />
			<path id="Layer" fill-rule="evenodd" class="shp5" d="M165.2 62.2C159.1 62.2 155.8 57.4 155.8 53.1C155.8 48.1 159.9 43.7 165.8 43.7C171.5 43.7 175 48.1 175 52.8C175 57.4 171.5 62.2 165.2 62.2ZM170 59.1C170.9 57.9 171.2 56.3 171.2 54.8C171.2 51.4 169.6 44.9 164.8 44.9C163.5 44.9 162.2 45.4 161.3 46.2C159.8 47.5 159.5 49.2 159.5 50.9C159.5 54.7 161.4 61 166.1 61C167.6 61.1 169.2 60.3 170 59.1Z" />
			<path id="Layer" fill-rule="evenodd" class="shp5" d="M144.2 62.2C138 62.2 134.8 57.4 134.8 53.1C134.8 48.1 138.9 43.7 144.8 43.7C150.5 43.7 154 48.1 154 52.8C154.1 57.4 150.5 62.2 144.2 62.2ZM149.1 59.1C150 57.9 150.3 56.3 150.3 54.8C150.3 51.4 148.7 44.9 143.9 44.9C142.6 44.9 141.3 45.4 140.4 46.2C138.9 47.5 138.6 49.2 138.6 50.9C138.6 54.7 140.5 61 145.2 61C146.6 61.1 148.2 60.3 149.1 59.1Z" />
			<path id="Layer" class="shp5" d="M131.9 61.6L126.3 62.9C124 63.2 122 63.6 119.9 63.6C109.2 63.6 105.1 55.7 105.1 49.6C105.1 42.1 110.9 35.1 120.8 35.1C122.9 35.1 124.9 35.4 126.7 35.9C129.6 36.7 131 37.7 131.8 38.3L128.6 41.4L127.2 41.7L128.2 40.2C126.9 38.9 124.5 36.6 119.9 36.6C113.8 36.6 109.1 41.2 109.1 48C109.1 55.3 114.4 62.1 122.9 62.1C125.4 62.1 126.7 61.6 127.8 61.1L127.8 54.9L121.9 55.2L125 53.5L133.2 53.5L132.2 54.5C131.9 54.7 131.9 54.8 131.8 55.1C131.8 55.4 131.7 56.6 131.7 57L131.7 61.6L131.9 61.6L131.9 61.6Z" />
			<path id="Layer" class="shp5" d="M201.9 60.5C200.6 60.4 200.3 60.2 200.3 58.6L200.3 58.2L200.3 36.7C200.3 36.6 200.3 36.5 200.3 36.5C200.5 35.1 200.8 34.9 202.1 34.2L196.5 34.2L193.6 35.6L196.6 35.6L196.6 35.6L196.6 35.6L196.6 58.2L196.6 59.5C196.6 60.3 196.4 60.4 195.6 61.6L202.5 61.6L203.9 60.8C203.2 60.6 202.6 60.6 201.9 60.5Z" />
			<path id="Layer" fill-rule="evenodd" class="shp5" d="M217.7 60.9C217.3 61.1 216.9 61.4 216.4 61.6C215.1 62.2 213.8 62.3 212.7 62.3C211.5 62.3 209.5 62.2 207.6 60.8C204.9 58.9 203.7 55.6 203.7 52.7C203.7 46.7 208.6 43.8 212.5 43.8C213.9 43.8 215.3 44.1 216.5 44.9C218.4 46.2 218.9 47.8 219.2 48.7L210.1 52.4L207.1 52.6C208.1 57.5 211.4 60.3 215.1 60.3C217.1 60.3 218.5 59.6 219.8 59L217.7 60.9ZM214.1 49.4C214.8 49.1 215.2 48.9 215.2 48.4C215.2 46.9 213.5 45.1 211.4 45.1C209.9 45.1 207 46.3 207 50.4C207 51.1 207.1 51.7 207.1 52.4L214.1 49.4Z" />
			<path id="Layer" class="shp5" d="M221.4 44.1L221.4 46.6L221.1 46.6L221.1 44.1L220.3 44.1L220.3 43.8L222.3 43.8L222.3 44.1L221.4 44.1Z" />
			<path id="Layer" class="shp5" d="M224.9 46.6L224.9 44L224.9 44L224.1 46.6L223.9 46.6L223.1 44L223.1 44L223.1 46.6L222.8 46.6L222.8 43.8L223.3 43.8L224 46.1L224 46.1L224.7 43.8L225.2 43.8L225.2 46.6L224.9 46.6Z" />
		</g>
	</g>
</svg>