<svg xmlns="http://www.w3.org/2000/svg" xmlns:xlink="http://www.w3.org/1999/xlink" viewBox="0 0 329 93.3"><defs><style>.cls-1{fill:none;}.cls-2{fill:gray;}.cls-3{clip-path:url(#clip-path);}.cls-4{fill:url(#linear-gradient);}.cls-5{clip-path:url(#clip-path-2);}.cls-6{fill:url(#linear-gradient-2);}.cls-7{clip-path:url(#clip-path-3);}.cls-8{fill:url(#linear-gradient-3);}.cls-9{clip-path:url(#clip-path-4);}.cls-10{fill:url(#linear-gradient-4);}.cls-11{fill:#fff;}</style><clipPath id="clip-path"><path class="cls-1" d="M37.9,20V78.6c0,.7.3,1.2.8,1.3L70,49,38.9,18.3a1.63,1.63,0,0,0-1,1.7"/></clipPath><linearGradient id="linear-gradient" x1="-1493.92" y1="3060.34" x2="-1493.51" y2="3060.34" gradientTransform="matrix(0, 152.48, 152.48, 0, -466582.44, 227808.4)" gradientUnits="userSpaceOnUse"><stop offset="0" stop-color="#297bae"/><stop offset="0.25" stop-color="#4691b1"/><stop offset="0.75" stop-color="#7dbab8"/><stop offset="1" stop-color="#93caba"/></linearGradient><clipPath id="clip-path-2"><path class="cls-1" d="M38.9,18.3,70,49l8.6-8.5L65.6,33h-.1L40.6,18.6a2.66,2.66,0,0,0-1.2-.3h-.5"/></clipPath><linearGradient id="linear-gradient-2" x1="-1473.73" y1="3068.55" x2="-1473.31" y2="3068.55" gradientTransform="matrix(97.54, 0, 0, -97.54, 143787.16, 299343.34)" gradientUnits="userSpaceOnUse"><stop offset="0" stop-color="#5bb8a7"/><stop offset="1" stop-color="#e3e292"/></linearGradient><clipPath id="clip-path-3"><path class="cls-1" d="M38.7,79.9a1.58,1.58,0,0,0,1.3-.2l3.6-2.1,22-12.7,6.5-3.7,6.5-3.7L70,49Z"/></clipPath><linearGradient id="linear-gradient-3" x1="-1503.79" y1="3066.91" x2="-1503.38" y2="3066.91" gradientTransform="matrix(0, 76.79, 76.79, 0, -235458.25, 115529.79)" gradientUnits="userSpaceOnUse"><stop offset="0" stop-color="#e33730"/><stop offset="0.17" stop-color="#d23942"/><stop offset="0.73" stop-color="#a04179"/><stop offset="1" stop-color="#8d448f"/></linearGradient><clipPath id="clip-path-4"><path class="cls-1" d="M70,49l8.6,8.5L88.1,52c1.4-.8,2.6-1.5,3-1.7,1.4-.8,1.3-1.9.2-2.6h-.1c-1.2-.6-11.1-6.4-12.4-7.1l-.1-.1Z"/></clipPath><linearGradient id="linear-gradient-4" x1="-1520.38" y1="3077.73" x2="-1519.97" y2="3077.73" gradientTransform="matrix(0, 40.96, 40.96, 0, -125967.54, 62307.94)" gradientUnits="userSpaceOnUse"><stop offset="0" stop-color="#e98278"/><stop offset="0.64" stop-color="#f4b074"/><stop offset="1" stop-color="#f9c672"/></linearGradient></defs><title>Asset 3</title><g id="Layer_2" data-name="Layer 2"><g id="Layer_1-2" data-name="Layer 1"><path class="cls-2" d="M310.1,93.3H18.9A19,19,0,0,1,0,74.4V18.9A19,19,0,0,1,18.9,0H310.1A19,19,0,0,1,329,18.9V74.4A19,19,0,0,1,310.1,93.3Z"/><g class="cls-3"><rect class="cls-4" x="37.9" y="18.3" width="32.1" height="61.6"/></g><g class="cls-5"><rect class="cls-6" x="38.9" y="18.3" width="39.7" height="30.7"/></g><g class="cls-7"><rect class="cls-8" x="38.7" y="49" width="39.9" height="31"/></g><g class="cls-9"><rect class="cls-10" x="70" y="40.5" width="22.5" height="17"/></g><path class="cls-11" d="M240.1,61.4a7.25,7.25,0,0,1-3.3-.7,6,6,0,0,1-2.5-2h-.2c.1,1.1.2,2.1.2,3.1v7.6h-2.8V42.6h2.3l.4,2.5h.1a7.37,7.37,0,0,1,2.5-2.2,8.84,8.84,0,0,1,3.3-.7,6.7,6.7,0,0,1,5.7,2.5,11.21,11.21,0,0,1,2,7,11.52,11.52,0,0,1-2,7.1,7,7,0,0,1-5.7,2.6m-.4-16.8c-1.9,0-3.3.5-4.1,1.6a8.1,8.1,0,0,0-1.3,5v.6c0,2.6.4,4.4,1.3,5.6a5.14,5.14,0,0,0,4.2,1.7,4.35,4.35,0,0,0,3.8-1.9,9.25,9.25,0,0,0,1.4-5.3,8.81,8.81,0,0,0-1.4-5.3,4.74,4.74,0,0,0-3.9-2"/><rect class="cls-11" x="251.5" y="34.9" width="2.8" height="26.2"/><path class="cls-11" d="M270.4,61l-.6-2.6h-.1a6.5,6.5,0,0,1-2.8,2.3,8.62,8.62,0,0,1-3.4.6,6.35,6.35,0,0,1-4.3-1.4,5.26,5.26,0,0,1-1.6-4c0-3.7,3-5.7,9-5.9l3.1-.1V48.8a4.89,4.89,0,0,0-.9-3.2,3.75,3.75,0,0,0-3-1,12.69,12.69,0,0,0-5.2,1.4l-.9-2.1a13.43,13.43,0,0,1,3-1.2,12.42,12.42,0,0,1,3.3-.4,7,7,0,0,1,4.9,1.5c1.1,1,1.6,2.5,1.6,4.7V61.1h-2.1ZM264,59.1a6,6,0,0,0,4.1-1.4,5.35,5.35,0,0,0,1.5-4V52l-2.8.1a10.77,10.77,0,0,0-4.8,1,3.16,3.16,0,0,0-1.5,2.9,2.87,2.87,0,0,0,.9,2.3,4.24,4.24,0,0,0,2.6.8"/><path class="cls-11" d="M274.1,42.6h3l4.1,10.5c.9,2.4,1.4,4.1,1.7,5.2h.1c.1-.6.5-1.6.9-2.9s2-5.6,4.6-12.8h3l-8,21a10.13,10.13,0,0,1-2.8,4.4,5.75,5.75,0,0,1-3.9,1.3,10.07,10.07,0,0,1-2.5-.3V66.8a12.48,12.48,0,0,0,2.1.2c1.9,0,3.3-1.1,4.1-3.2l1-2.6Z"/><path class="cls-11" d="M188.1,44.3a6.47,6.47,0,0,1,2.8,5.2c0,2.9-1.6,4.2-3.3,5.5a2.65,2.65,0,0,0-1.1,1.9,2.46,2.46,0,0,0,1,1.7l1.4,1.1c1.7,1.4,3.3,2.7,3.3,5.4,0,3.6-3.5,7.3-10.2,7.3-5.6,0-8.3-2.7-8.3-5.5a5.47,5.47,0,0,1,3-4.7c2.4-1.5,5.7-1.7,7.4-1.8a4.23,4.23,0,0,1-1.2-2.6,3.31,3.31,0,0,1,.4-1.5c-.4,0-.9.1-1.2.1a6.07,6.07,0,0,1-6.4-6.1,7,7,0,0,1,2.5-5.2,10.52,10.52,0,0,1,6.9-2.1h8l-2.5,1.4-2.5-.1Zm-2.8,17.1h-.9a18.3,18.3,0,0,0-4.1.6,4.23,4.23,0,0,0-3.3,4c0,2.7,2.7,4.7,6.8,4.7,3.7,0,5.7-1.8,5.7-4.2.1-1.9-1.2-3-4.2-5.1m1.2-7.3a3.87,3.87,0,0,0,1-2.8c0-2.8-1.7-7.1-4.9-7.1a3.51,3.51,0,0,0-2.7,1.3,4.36,4.36,0,0,0-.9,2.9c0,2.6,1.5,6.9,4.8,6.9a5.13,5.13,0,0,0,2.7-1.2"/><path class="cls-11" d="M163.7,60.8a9.12,9.12,0,0,1-9.4-9.1c0-5,4.1-9.4,10-9.4a9,9,0,0,1,9.2,9.1,9.41,9.41,0,0,1-9.8,9.4m4.8-3.1a7.19,7.19,0,0,0,1.2-4.3c0-3.4-1.6-9.9-6.4-9.9a5.39,5.39,0,0,0-3.5,1.3,5.76,5.76,0,0,0-1.8,4.7c0,3.8,1.9,10.1,6.6,10.1a4.53,4.53,0,0,0,3.9-1.9"/><path class="cls-11" d="M142.7,60.8a9.06,9.06,0,0,1-9.4-9.1c0-5,4.1-9.4,10-9.4a9,9,0,0,1,9.2,9.1c.1,4.6-3.5,9.4-9.8,9.4m4.9-3.1a7.19,7.19,0,0,0,1.2-4.3c0-3.4-1.6-9.9-6.4-9.9a5.39,5.39,0,0,0-3.5,1.3,5.76,5.76,0,0,0-1.8,4.7c0,3.8,1.9,10.1,6.6,10.1a4.78,4.78,0,0,0,3.9-1.9"/><path class="cls-11" d="M130.4,60.2l-5.6,1.3a50,50,0,0,1-6.4.7c-10.7,0-14.8-7.9-14.8-14,0-7.5,5.8-14.5,15.7-14.5a22.14,22.14,0,0,1,5.9.8,14,14,0,0,1,5.1,2.4L127.1,40l-1.4.3,1-1.5a10.93,10.93,0,0,0-8.3-3.6c-6.1,0-10.8,4.6-10.8,11.4,0,7.3,5.3,14.1,13.8,14.1a10.59,10.59,0,0,0,4.9-1V53.5l-5.9.3,3.1-1.7h8.2l-1,1c-.3.2-.3.3-.4.6s-.1,1.5-.1,1.9v4.6h.2Z"/><path class="cls-11" d="M200.4,59.1c-1.3-.1-1.6-.3-1.6-1.9V35.1c.2-1.4.5-1.6,1.8-2.3H195l-2.9,1.4h3V58.1c0,.8-.2.9-1,2.1H201l1.4-.8a13.8,13.8,0,0,0-2-.3"/><path class="cls-11" d="M216.2,59.5c-.4.2-.8.5-1.3.7a8.63,8.63,0,0,1-3.7.7,8.26,8.26,0,0,1-5.1-1.5,9.93,9.93,0,0,1-3.9-8.1,8.74,8.74,0,0,1,8.8-8.9,7.11,7.11,0,0,1,4,1.1,6.7,6.7,0,0,1,2.7,3.8L208.6,51l-3,.2c1,4.9,4.3,7.7,8,7.7a10.44,10.44,0,0,0,4.7-1.3ZM212.6,48c.7-.3,1.1-.5,1.1-1a3.81,3.81,0,0,0-3.8-3.3c-1.5,0-4.4,1.2-4.4,5.3,0,.7.1,1.3.1,2Z"/><polygon class="cls-11" points="219.9 42.7 219.9 45.2 219.6 45.2 219.6 42.7 218.8 42.7 218.8 42.4 220.8 42.4 220.8 42.7 219.9 42.7"/><polygon class="cls-11" points="223.4 45.2 223.4 42.6 223.4 42.6 222.6 45.2 222.4 45.2 221.6 42.6 221.6 42.6 221.6 45.2 221.3 45.2 221.3 42.4 221.8 42.4 222.5 44.7 222.5 44.7 223.2 42.4 223.7 42.4 223.7 45.2 223.4 45.2"/></g></g></svg>