<svg xmlns="http://www.w3.org/2000/svg" viewBox="0 0 271 193" width="271" height="193">
	<style>
		tspan { white-space:pre }
		.shp0 { fill: #ffffff } 
	</style>
	<g id="Layer">
		<g id="Layer">
			<g id="Layer">
				<g id="Layer">
					<path id="Layer" class="shp0" d="M163.8 173.2L30.1 173.2C15.7 173.2 4 161.5 4 147.1L4 28.5C4 14.1 15.7 2.4 30.1 2.4L237.5 2.4C251.9 2.4 263.6 14.1 263.6 28.5L263.6 99.2C263.6 102.9 260.6 105.9 256.9 105.9C253.2 105.9 250.2 102.9 250.2 99.2L250.2 28.5C250.2 21.5 244.5 15.8 237.5 15.8L30.1 15.8C23.1 15.8 17.4 21.5 17.4 28.5L17.4 147.1C17.4 154.1 23.1 159.8 30.1 159.8L163.9 159.8C167.6 159.8 170.6 162.8 170.6 166.5C170.5 170.2 167.5 173.2 163.8 173.2Z" />
				</g>
				<g id="Layer">
					<path id="Layer" class="shp0" d="M53 151.5L39.2 151.5C35.5 151.5 32.5 148.5 32.5 144.8C32.5 141.1 35.5 138.1 39.2 138.1L53 138.1C56.7 138.1 59.7 141.1 59.7 144.8C59.7 148.5 56.7 151.5 53 151.5Z" />
				</g>
				<g id="Layer">
					<path id="Layer" class="shp0" d="M10.7 47.8L256.9 47.8L256.9 73.7L10.7 73.7L10.7 47.8Z" />
				</g>
			</g>
		</g>
		<g id="Layer">
			<g id="Layer">
				<path id="Layer" class="shp0" d="M262.2 191.6C260.2 191.6 258.2 190.8 256.7 189.3L240.5 173.1C237.4 170 237.4 165.1 240.5 162C243.6 158.9 248.5 158.9 251.6 162L267.8 178.2C270.9 181.3 270.9 186.2 267.8 189.3C266.2 190.8 264.2 191.6 262.2 191.6Z" />
			</g>
			<g id="Layer">
				<path id="Layer" class="shp0" d="M229.23 157.45L235.8 150.87L242.24 157.31L235.66 163.88L229.23 157.45Z" />
			</g>
			<g id="Layer">
				<path id="Layer" fill-rule="evenodd" class="shp0" d="M207 166.2C186 166.2 168.9 149.1 168.9 128.1C168.9 107.1 186 90 207 90C228 90 245.1 107.1 245.1 128.1C245.1 149.1 228 166.2 207 166.2ZM207 99.3C191.1 99.3 178.2 112.2 178.2 128.1C178.2 144 191.1 156.9 207 156.9C222.9 156.9 235.8 144 235.8 128.1C235.8 112.2 222.8 99.3 207 99.3Z" />
			</g>
			<g id="Layer">
				<path id="Layer" class="shp0" d="M184.3 129.4C183.4 129.4 182.6 128.6 182.6 127.7C182.6 114.5 193.3 103.8 206.5 103.8C207.4 103.8 208.2 104.6 208.2 105.5C208.2 106.4 207.4 107.2 206.5 107.2C195.2 107.2 186 116.4 186 127.7C186 128.6 185.3 129.4 184.3 129.4Z" />
			</g>
		</g>
	</g>
</svg>