<svg xmlns="http://www.w3.org/2000/svg" xmlns:xlink="http://www.w3.org/1999/xlink" viewBox="0 0 320.9 79.1"><defs><style>.cls-1{fill:none;}.cls-2{fill:#d7282f;}.cls-3{clip-path:url(#clip-path);}.cls-4{fill:url(#linear-gradient);}.cls-5{clip-path:url(#clip-path-2);}.cls-6{fill:url(#linear-gradient-2);}</style><clipPath id="clip-path" transform="translate(0 0)"><path class="cls-1" d="M2.6,0A2.58,2.58,0,0,0,0,2.6V45.1C0,65.7,13.2,79,33.8,79H51.2a2.65,2.65,0,0,0,2.6-2.6V55.5a2.65,2.65,0,0,0-2.6-2.6H40.1c-1.4,0-8.1-.2-8.1-8.1V2.6A2.65,2.65,0,0,0,29.4,0Z"/></clipPath><linearGradient id="linear-gradient" x1="-553.09" y1="-255.32" x2="-551.91" y2="-255.32" gradientTransform="matrix(32.9, 0, 0, -32.9, 18212.39, -8360.61)" gradientUnits="userSpaceOnUse"><stop offset="0" stop-color="#e21e30"/><stop offset="0.63" stop-color="#cc1c2c"/><stop offset="1" stop-color="#bd1a29"/></linearGradient><clipPath id="clip-path-2" transform="translate(0 0)"><path class="cls-1" d="M38.4,11.4A2.65,2.65,0,0,0,35.8,14V37.9a2.65,2.65,0,0,0,2.6,2.6H51.1c1.4,0,6.5.2,6.5,8.1V76.3a2.65,2.65,0,0,0,2.6,2.6H87a2.65,2.65,0,0,0,2.6-2.6v-31c0-20.6-13.2-33.9-33.8-33.9Z"/></clipPath><linearGradient id="linear-gradient-2" x1="-558.92" y1="-176.46" x2="-557.74" y2="-176.46" gradientTransform="matrix(-27.4, 0, 0, 27.4, -15243.16, 4880.22)" xlink:href="#linear-gradient"/></defs><title>Asset 4</title><g id="Layer_2" data-name="Layer 2"><g id="Layer_1-2" data-name="Layer 1"><path class="cls-2" d="M136.5,10.1a8.22,8.22,0,0,1-5.3,7.8c3.2,1.1,5.8,3.6,5.8,8.4,0,8.5-6.9,10.1-14.4,10.1a72.79,72.79,0,0,1-12.3-1V1.2A62.31,62.31,0,0,1,122.1.1c6.7.1,14.4,1.4,14.4,10M118.5,21v8.5a24.15,24.15,0,0,0,4,.3c3.6,0,6.2-.6,6.2-4.3,0-3.9-2.8-4.5-6.4-4.5Zm3.8-6.1c3.5,0,6-.6,6-4.2s-2.5-4-6.3-4c-1.1,0-2.4.1-3.5.2v7.9l3.8.1Z" transform="translate(0 0)"/><path class="cls-2" d="M141.6,27.6c0-4.9,2.1-7.9,7.8-8.8a40.6,40.6,0,0,1,7.7-.6c0-2.4-1.3-3.3-4.2-3.3a92,92,0,0,0-9.7.7l-.6-5.8a64.46,64.46,0,0,1,10.9-1.1c6.1,0,11.3,1.8,11.3,8.9V28.5c0,1.9-.1,3.5-.2,5.4-3.2,1.9-7.4,2.7-12.1,2.7-7.9-.2-10.9-3-10.9-9m15.5-4.3a28.44,28.44,0,0,0-5.1.6c-1.9.5-2.7,1.1-2.7,3.6,0,2.3,1.4,3,3.8,3a10.91,10.91,0,0,0,3.9-.6c.1-1.1.2-2.4.2-3.6l-.1-3Z" transform="translate(0 0)"/><path class="cls-2" d="M177.9,36.1h-7.8V16.6c0-1.9.1-3.5.2-5.4,3.2-1.9,7.6-2.7,12.1-2.7,10,0,11.1,4.3,11.1,10.4V36.1h-7.8V19.5c0-3.2-.6-4.6-4.4-4.6a8.11,8.11,0,0,0-3.3.6c-.1,1.1-.2,2.4-.2,3.6l.1,17Z" transform="translate(0 0)"/><path class="cls-2" d="M218.1,35.3a38.42,38.42,0,0,1-9.4,1.1c-9.2,0-10.5-7-10.5-14.2,0-8.9,2.1-13.7,12.1-13.7A25.22,25.22,0,0,1,218,9.6l-.6,5.7a23.22,23.22,0,0,0-5.2-.7c-5.5,0-6.2,1.8-6.2,7.6,0,5.5.3,7.9,6.3,7.9a22.36,22.36,0,0,0,5.1-.7Z" transform="translate(0 0)"/><path class="cls-2" d="M221.5,22.5c0-10.1,3.2-13.9,12.2-13.9s12.2,3.9,12.2,13.9-3.2,13.9-12.2,13.9-12.2-3.8-12.2-13.9m16.7,0c0-5.9-.8-7.6-4.5-7.6s-4.5,1.6-4.5,7.6.8,7.6,4.5,7.6,4.5-1.6,4.5-7.6" transform="translate(0 0)"/><path class="cls-2" d="M107.2,78.6l10.4-30.3c1.4-4.1,3.4-5.8,6.4-5.8s5,1.9,6.4,5.8l10.2,30.3h-8.9l-2.4-8.2H118.2l-2.3,8.2ZM127.3,64l-3.7-12.6L120,64Z" transform="translate(0 0)"/><path class="cls-2" d="M169.6,42.6V70.1c0,1.9.8,2.9,2.8,2.9a9.08,9.08,0,0,0,2.3-.3l.7,5.8a31.87,31.87,0,0,1-5.3.6c-5.9,0-8.5-2.6-8.5-8V42.6Z" transform="translate(0 0)"/><path class="cls-2" d="M177.5,70c0-4.9,2.1-7.9,7.8-8.8a41.64,41.64,0,0,1,7.8-.6c0-2.5-1.3-3.4-4.2-3.4a96,96,0,0,0-9.8.7l-.6-5.9a64.46,64.46,0,0,1,10.9-1.1c6.2,0,11.4,1.8,11.4,9v11a48.86,48.86,0,0,1-.3,5.4c-3.2,1.9-7.4,2.7-12.2,2.7-7.8,0-10.8-3-10.8-9M193,65.7a27.4,27.4,0,0,0-5.1.6c-1.9.5-2.7,1.1-2.7,3.7,0,2.3,1.4,3,3.8,3a10.59,10.59,0,0,0,3.9-.6c.1-1.1.2-2.4.2-3.7l-.1-3ZM192.3,48h-5.9l4-6.9h7.8Z" transform="translate(0 0)"/><path class="cls-2" d="M214.5,78.6h-7.8V58.9c0-1.9.1-3.5.2-5.4,3.2-1.9,7.6-2.7,12.1-2.7,10.1,0,11.2,4.3,11.2,10.4V78.5h-7.8V61.8c0-3.3-.6-4.6-4.4-4.6a9,9,0,0,0-3.4.6c-.1,1.1-.2,2.4-.2,3.7l.1,17.1Z" transform="translate(0 0)"/><path class="cls-2" d="M254.4,44.7c0-2.8,1-3.9,4.3-3.9s4.3,1.1,4.3,3.9-1,3.9-4.3,3.9-4.3-1-4.3-3.9m.3,6.2h8V78.6h-8Z" transform="translate(0 0)"/><path class="cls-2" d="M284.7,42.6h7.9V71a48.87,48.87,0,0,1-.3,5.4c-3.1,1.9-7.4,2.7-11.3,2.7-9.3,0-13.2-3.2-13.2-14s3.9-14,12.3-14a31.28,31.28,0,0,1,4.4.4V42.7h.2Zm-3,14.6c-5.8,0-5.9,3.3-5.9,7.7,0,3.9.2,7.8,5.3,7.8a8.62,8.62,0,0,0,3.4-.6c.1-1.1.2-2.4.2-3.7V57.5c-.9-.1-2.1-.3-3-.3" transform="translate(0 0)"/><path class="cls-2" d="M297.6,70c0-4.9,2.1-7.9,7.8-8.8a41.64,41.64,0,0,1,7.8-.6c0-2.5-1.3-3.4-4.2-3.4a96,96,0,0,0-9.8.7l-.6-5.9a64.46,64.46,0,0,1,10.9-1.1c6.2,0,11.4,1.8,11.4,9v11a48.87,48.87,0,0,1-.3,5.4c-3.2,1.9-7.4,2.7-12.1,2.7-7.9,0-10.9-3-10.9-9m15.5-4.3a27.4,27.4,0,0,0-5.1.6c-1.9.5-2.8,1.1-2.8,3.7,0,2.3,1.4,3,3.8,3a10.91,10.91,0,0,0,3.9-.6c.1-1.1.2-2.4.2-3.7v-3Z" transform="translate(0 0)"/><path class="cls-2" d="M243.6,42.6v8.3h6.8v6.5h-6.8V70.1c0,1.9.8,2.9,2.8,2.9a20.9,20.9,0,0,0,2.5-.1l.6,5.6a31.87,31.87,0,0,1-5.3.6c-5.9,0-8.5-2.6-8.5-8V42.6Z" transform="translate(0 0)"/><path class="cls-2" d="M150.8,42.6v8.3h6.8v6.5h-6.8V70.1c0,1.9.8,2.9,2.8,2.9a20.9,20.9,0,0,0,2.5-.1l.6,5.6a31.87,31.87,0,0,1-5.3.6c-5.9,0-8.5-2.6-8.5-8V42.6Z" transform="translate(0 0)"/><g class="cls-3"><rect class="cls-4" width="53.8" height="78.9"/></g><g class="cls-5"><rect class="cls-6" x="35.8" y="11.4" width="53.8" height="67.5"/></g></g></g></svg>