<svg xmlns="http://www.w3.org/2000/svg" viewBox="0 0 259.3 170.8"><defs><style>.cls-1,.cls-2{fill:#fff;}.cls-2{isolation:isolate;font-size:74.16px;font-family:MyriadPro-Regular, Myriad Pro;letter-spacing:0.09em;}</style></defs><title>Asset 1</title><g id="Layer_2" data-name="Layer 2"><g id="Capa_1" data-name="Capa 1"><path class="cls-1" d="M26.2,170.8H233.1a26.23,26.23,0,0,0,26.2-26.2V125a6.9,6.9,0,1,0-13.8,0v19.6A12.4,12.4,0,0,1,233.1,157H26.2a12.4,12.4,0,0,1-12.4-12.4V26.2A12.4,12.4,0,0,1,26.2,13.8H233.1a12.4,12.4,0,0,1,12.4,12.4V96.7a6.9,6.9,0,0,0,13.8,0V26.2A26.23,26.23,0,0,0,233.1,0H26.2A26.23,26.23,0,0,0,0,26.2V144.5A26.18,26.18,0,0,0,26.2,170.8Z"/><path class="cls-1" d="M35.3,149.1H49.1a6.9,6.9,0,1,0,0-13.8H35.3a6.9,6.9,0,1,0,0,13.8Z"/><rect class="cls-1" x="6.8" y="45.5" width="245.5" height="25.8"/><text class="cls-2" transform="translate(43.75 151.88)">****</text></g></g></svg>