<?xml version="1.0" encoding="utf-8"?>
<!-- Generator: Adobe Illustrator 25.0.0, SVG Export Plug-In . SVG Version: 6.00 Build 0)  -->
<svg version="1.1" id="Capa_1" xmlns="http://www.w3.org/2000/svg" xmlns:xlink="http://www.w3.org/1999/xlink" x="0px" y="0px"
	 viewBox="0 0 400 400" style="enable-background:new 0 0 400 400;" xml:space="preserve">
<style type="text/css">
	.st0{fill:#BD131F;}
	.st1{font-family:'NeoSans-Bold';}
	.st2{font-size:74.1628px;}
	.st3{letter-spacing:7;}
</style>
<g>
	<g>
		<g>
			<path class="st0" d="M96.6,285.4h206.9c14.5,0,26.2-11.8,26.2-26.2v-19.6c0-3.8-3.1-6.9-6.9-6.9s-6.9,3.1-6.9,6.9v19.6
				c0,6.9-5.6,12.4-12.4,12.4H96.6c-6.9,0-12.4-5.6-12.4-12.4V140.8c0-6.9,5.6-12.4,12.4-12.4h206.9c6.9,0,12.4,5.6,12.4,12.4v70.5
				c0,3.8,3.1,6.9,6.9,6.9s6.9-3.1,6.9-6.9v-70.5c0-14.5-11.8-26.2-26.2-26.2H96.6c-14.5,0-26.2,11.8-26.2,26.2v118.3
				C70.3,273.6,82.1,285.4,96.6,285.4z"/>
		</g>
		<g>
			<path class="st0" d="M105.7,263.7h13.8c3.8,0,6.9-3.1,6.9-6.9c0-3.8-3.1-6.9-6.9-6.9h-13.8c-3.8,0-6.9,3.1-6.9,6.9
				C98.8,260.6,101.9,263.7,105.7,263.7z"/>
		</g>
		<g>
			<rect x="77.2" y="160.1" class="st0" width="245.5" height="25.8"/>
		</g>
	</g>
	<text transform="matrix(1 0 0 1 114.1516 266.4759)" class="st0 st1 st2 st3">****</text>
</g>
</svg>
