<svg xmlns="http://www.w3.org/2000/svg" viewBox="0 0 262 116" width="438" height="194">
	<style>
		tspan { white-space:pre }
		.shp0 { fill: #ffffff } 
	</style>
	<g id="Layer">
		<path id="Layer" class="shp0" d="M26.1 57.9L39.6 62.4L31.2 73.8C30.4 74.8 30.1 76.1 30.3 77.4C30.5 78.7 31.2 79.8 32.2 80.6C34.3 82.1 37.5 81.7 39 79.6L47.5 68.2L55.8 79.7C56.7 81 58.2 81.7 59.8 81.7C60.8 81.7 61.8 81.4 62.7 80.8C64.9 79.2 65.4 76.2 63.8 74L55.5 62.5L69 58.1C70.2 57.7 71.3 56.8 71.9 55.7C72.5 54.5 72.6 53.2 72.2 52C71.4 49.4 68.6 48 66 48.8L52.5 53.2L52.5 39C52.5 36.3 50.3 34.1 47.6 34.1C44.9 34.1 42.7 36.3 42.7 39L42.7 53.1L29.3 48.6C26.7 47.7 24 49.1 23.1 51.7C22.1 54.3 23.5 57.1 26.1 57.9Z" />
		<path id="Layer" class="shp0" d="M83.1 57.9L96.6 62.4L88.2 73.8C87.4 74.9 87.1 76.1 87.3 77.4C87.5 78.7 88.2 79.8 89.2 80.6C91.3 82.1 94.5 81.7 96 79.6L104.5 68.2L112.8 79.7C113.7 81 115.2 81.7 116.8 81.7C117.8 81.7 118.8 81.4 119.7 80.8C121.9 79.2 122.4 76.2 120.8 74L112.5 62.5L126 58.1C127.2 57.7 128.3 56.8 128.9 55.7C129.5 54.5 129.6 53.2 129.2 52C128.8 50.7 127.9 49.7 126.8 49.1C125.6 48.5 124.3 48.4 123.1 48.8L109.6 53.2L109.6 39C109.6 36.3 107.4 34.1 104.7 34.1C102 34.1 99.8 36.3 99.8 39L99.8 53.1L86.4 48.6C83.8 47.7 81.1 49.1 80.2 51.7C79.1 54.3 80.5 57.1 83.1 57.9Z" />
		<path id="Layer" class="shp0" d="M140.1 57.9L153.6 62.4L145.2 73.8C144.4 74.9 144.1 76.1 144.3 77.4C144.5 78.7 145.2 79.8 146.2 80.6C148.3 82.1 151.5 81.7 153 79.6L161.5 68.2L169.8 79.7C170.7 81 172.2 81.7 173.8 81.7C174.8 81.7 175.8 81.4 176.7 80.8C177.8 80 178.5 78.9 178.7 77.6C178.9 76.3 178.6 75 177.8 74L169.5 62.5L183 58.1C184.2 57.7 185.3 56.8 185.9 55.7C186.5 54.5 186.6 53.2 186.2 52C185.8 50.8 184.9 49.7 183.8 49.1C182.6 48.5 181.3 48.4 180.1 48.8L166.6 53.2L166.6 39C166.6 36.3 164.4 34.1 161.7 34.1C159 34.1 156.8 36.3 156.8 39L156.8 53.1L143.4 48.6C140.8 47.7 138 49.1 137.2 51.7C136.1 54.3 137.5 57.1 140.1 57.9Z" />
		<path id="Layer" class="shp0" d="M245.7 1.2L16.3 1.2C8.1 1.2 1.4 7.9 1.4 16.1L1.4 99.8C1.4 108 8.1 114.7 16.3 114.7L24.1 114.7C26.2 114.7 27.9 113 27.9 110.9L27.9 110.9C27.9 107.6 25.2 104.9 21.9 104.9L16.3 104.9C13.5 104.9 11.2 102.6 11.2 99.8L11.2 16.1C11.2 13.3 13.5 11 16.3 11L245.8 11C248.6 11 250.9 13.3 250.9 16.1L250.9 99.8C250.9 102.6 248.6 104.9 245.8 104.9L77.3 104.9C74 104.9 71.3 107.6 71.3 110.9L71.3 110.9C71.3 113 73 114.7 75.1 114.7L245.8 114.7C254 114.7 260.7 108 260.7 99.8L260.7 16.1C260.6 7.9 254 1.2 245.7 1.2Z" />
		<path id="Layer" class="shp0" d="M211.1 86.1C208.4 86.1 206.2 88.3 206.2 91C206.2 93.7 208.4 95.9 211.1 95.9L227.5 95.9C230.2 95.9 232.4 93.7 232.4 91C232.4 88.3 230.2 86.1 227.5 86.1L224.2 86.1L224.2 29.9L227.5 29.9C230.2 29.9 232.4 27.7 232.4 25C232.4 22.3 230.2 20.1 227.5 20.1L211.1 20.1C208.4 20.1 206.2 22.3 206.2 25C206.2 27.7 208.4 29.9 211.1 29.9L214.4 29.9L214.4 86.1L211.1 86.1L211.1 86.1Z" />
	</g>
</svg>