<?xml version="1.0" encoding="utf-8"?>
<!-- Generator: Adobe Illustrator 25.0.0, SVG Export Plug-In . SVG Version: 6.00 Build 0)  -->
<svg version="1.1" id="Capa_1" xmlns="http://www.w3.org/2000/svg" xmlns:xlink="http://www.w3.org/1999/xlink" x="0px" y="0px"
	 viewBox="0 0 400 400" style="enable-background:new 0 0 400 400;" xml:space="preserve">
<style type="text/css">
	.st0{fill:#FFF;}
</style>
<g>
	<path class="st0" d="M95.1,199.9l13.5,4.5l-8.4,11.4c-0.8,1-1.1,2.3-0.9,3.6c0.2,1.3,0.9,2.4,1.9,3.2c2.1,1.5,5.3,1.1,6.8-1
		l8.5-11.4l8.3,11.5c0.9,1.3,2.4,2,4,2c1,0,2-0.3,2.9-0.9c2.2-1.6,2.7-4.6,1.1-6.8l-8.3-11.5l13.5-4.4c1.2-0.4,2.3-1.3,2.9-2.4
		c0.6-1.2,0.7-2.5,0.3-3.7c-0.8-2.6-3.6-4-6.2-3.2l-13.5,4.4V181c0-2.7-2.2-4.9-4.9-4.9c-2.7,0-4.9,2.2-4.9,4.9v14.1l-13.4-4.5
		c-2.6-0.9-5.3,0.5-6.2,3.1C91.1,196.3,92.5,199.1,95.1,199.9z"/>
	<path class="st0" d="M152.1,199.9l13.5,4.5l-8.4,11.4c-0.8,1.1-1.1,2.3-0.9,3.6c0.2,1.3,0.9,2.4,1.9,3.2c2.1,1.5,5.3,1.1,6.8-1
		l8.5-11.4l8.3,11.5c0.9,1.3,2.4,2,4,2c1,0,2-0.3,2.9-0.9c2.2-1.6,2.7-4.6,1.1-6.8l-8.3-11.5l13.5-4.4c1.2-0.4,2.3-1.3,2.9-2.4
		c0.6-1.2,0.7-2.5,0.3-3.7c-0.4-1.3-1.3-2.3-2.4-2.9c-1.2-0.6-2.5-0.7-3.7-0.3l-13.5,4.4V181c0-2.7-2.2-4.9-4.9-4.9
		c-2.7,0-4.9,2.2-4.9,4.9v14.1l-13.4-4.5c-2.6-0.9-5.3,0.5-6.2,3.1C148.1,196.3,149.5,199.1,152.1,199.9z"/>
	<path class="st0" d="M209.1,199.9l13.5,4.5l-8.4,11.4c-0.8,1.1-1.1,2.3-0.9,3.6c0.2,1.3,0.9,2.4,1.9,3.2c2.1,1.5,5.3,1.1,6.8-1
		l8.5-11.4l8.3,11.5c0.9,1.3,2.4,2,4,2c1,0,2-0.3,2.9-0.9c1.1-0.8,1.8-1.9,2-3.2s-0.1-2.6-0.9-3.6l-8.3-11.5l13.5-4.4
		c1.2-0.4,2.3-1.3,2.9-2.4c0.6-1.2,0.7-2.5,0.3-3.7c-0.4-1.2-1.3-2.3-2.4-2.9c-1.2-0.6-2.5-0.7-3.7-0.3l-13.5,4.4V181
		c0-2.7-2.2-4.9-4.9-4.9c-2.7,0-4.9,2.2-4.9,4.9v14.1l-13.4-4.5c-2.6-0.9-5.4,0.5-6.2,3.1C205.1,196.3,206.5,199.1,209.1,199.9z"/>
	<path class="st0" d="M314.7,143.2H85.3c-8.2,0-14.9,6.7-14.9,14.9v83.7c0,8.2,6.7,14.9,14.9,14.9h7.8c2.1,0,3.8-1.7,3.8-3.8v0
		c0-3.3-2.7-6-6-6h-5.6c-2.8,0-5.1-2.3-5.1-5.1v-83.7c0-2.8,2.3-5.1,5.1-5.1h229.5c2.8,0,5.1,2.3,5.1,5.1v83.7
		c0,2.8-2.3,5.1-5.1,5.1H146.3c-3.3,0-6,2.7-6,6l0,0c0,2.1,1.7,3.8,3.8,3.8h170.7c8.2,0,14.9-6.7,14.9-14.9v-83.7
		C329.6,149.9,323,143.2,314.7,143.2z"/>
	<path class="st0" d="M280.1,228.1c-2.7,0-4.9,2.2-4.9,4.9c0,2.7,2.2,4.9,4.9,4.9h16.4c2.7,0,4.9-2.2,4.9-4.9c0-2.7-2.2-4.9-4.9-4.9
		h-3.3v-56.2h3.3c2.7,0,4.9-2.2,4.9-4.9c0-2.7-2.2-4.9-4.9-4.9h-16.4c-2.7,0-4.9,2.2-4.9,4.9c0,2.7,2.2,4.9,4.9,4.9h3.3v56.2H280.1z
		"/>
</g>
</svg>
