<svg xmlns="http://www.w3.org/2000/svg" viewBox="0 0 192 192" width="194" height="194">
	<style>
		tspan { white-space:pre }
		.shp0 { fill: #ffffff } 
	</style>
	<g id="Layer">
		<path id="Layer" class="shp0" d="M122.7 104.5C124.3 102.9 126.4 102.1 128.7 102.1L128.7 102.1C133.1 102.1 136.7 105.3 137.1 109.5C137.2 110.5 138 111.3 139 111.3L140 111.3C140.6 111.3 141.1 111.1 141.5 110.7C141.9 110.3 142.1 109.7 142 109.2C141.4 102.5 135.5 97.3 128.7 97.2L128.7 97.2C125.1 97.2 121.8 98.6 119.2 101C116.7 103.5 115.3 106.8 115.3 110.3L115.3 117.7L113 117.7L113 117.7C108 117.7 104 121.7 104 126.7L104 144.6C104 147.9 105.8 150.9 108.7 152.5C109.9 153.2 111.4 153.6 113 153.6L144.5 153.6L144.5 153.6C146.9 153.6 149.2 152.7 150.9 151C152.6 149.3 153.5 147 153.6 144.6C153.6 143.9 153.3 143.3 152.9 142.9C152.4 142.4 151.8 142.2 151.2 142.2L151.2 142.2C149.8 142.2 148.7 143.3 148.7 144.7C148.7 145.8 148.3 146.8 147.5 147.6C146.7 148.4 145.7 148.8 144.6 148.8L144.6 148.8L113.1 148.8C112.4 148.8 111.8 148.7 111.3 148.4C109.8 147.7 109 146.3 109 144.7L109 126.9C109 125.8 109.3 124.8 110 124.1C110.8 123.1 111.9 122.6 113.1 122.6L113.1 122.6L144.6 122.6C145.3 122.6 146 122.8 146.5 123.1C147.9 123.9 148.7 125.2 148.7 126.7L148.7 134.8C148.7 135.5 149 136.1 149.4 136.5C149.9 137 150.5 137.2 151.1 137.2C151.8 137.2 152.4 136.9 152.8 136.5C153.3 136 153.5 135.4 153.5 134.8L153.5 126.7C153.5 123.4 151.8 120.5 148.9 118.8C147.6 118.1 146.1 117.7 144.5 117.7L120.3 117.7L120.3 110.3C120.3 108.1 121.2 106.1 122.7 104.5Z" />
		<path id="Layer" class="shp0" d="M126.4 143.7C126.8 144.1 127.4 144.3 128.1 144.3L129.5 144.3L129.5 144.3C130.9 144.3 131.8 143.4 131.8 142.1L131.8 137.5C132.7 136.7 133.2 135.5 133.2 134.3C133.2 133.1 132.8 132 131.9 131.2C131.1 130.4 130 129.9 128.8 129.9L128.8 129.9C127.6 129.9 126.6 130.3 125.7 131.2C124.9 132 124.4 133.1 124.4 134.3C124.4 135.5 124.9 136.7 125.8 137.5L125.8 142.1C125.8 142.8 126 143.3 126.4 143.7Z" />
		<path id="Layer" class="shp0" d="M71.5 90.3C64.3 93.1 54.5 97 49.5 107.7C47.5 112 47.6 116.9 49.7 121.2C51.9 125.6 56 128.6 60.7 129.5L69.9 131.3C77.1 132.7 84.5 133.4 91.8 133.4C93.8 133.4 95.8 133.3 97.8 133.2C98.4 133.2 98.9 132.8 99.1 132.2L100.3 128.2C100.4 127.8 100.3 127.3 100.1 126.9C99.8 126.5 99.4 126.4 98.9 126.4C89.7 127 80.4 126.4 71.3 124.6L62.1 122.8C59.4 122.3 57 120.5 55.8 118C54.6 115.6 54.5 112.8 55.6 110.4C59.5 102.2 67.2 99.1 73.9 96.4L73.8 96.1L73.8 96.1L74 96.4C78.7 94.5 82.8 92.9 85.1 89.8L85.6 89.2L86.7 83.4C86.8 82.8 86.5 82.2 86 81.9L84.7 81.2C79 78.3 72.3 72.3 72.3 60.2C72.3 47.3 80.3 38.3 91.8 38.3C103.3 38.3 111.3 47.3 111.3 60.2C111.3 69.7 107.1 76.9 99 81.1L97.7 81.8C97.2 82.1 96.9 82.7 97 83.3L98.1 89.4C98.1 89.6 98.3 89.9 98.4 90L98.7 90.4C101.1 93.2 105 94.8 109.5 96.5L109.6 96.5C110.9 97 112.3 97.6 113.6 98.2C114 98.4 114.4 98.4 114.8 98.2L119.2 95.9C119.7 95.7 120 95.2 120 94.7C120 94.2 119.7 93.7 119.2 93.5C116.7 92.2 114.2 91.2 112 90.4L111.9 90.7L111.9 90.7L111.9 90.7L111.9 90.7L112 90.4L112 90.4C109 89.2 106.2 88.1 104.6 86.8C104.5 86.7 104.4 86.5 104.3 86.4C104.2 86.1 104.4 85.8 104.6 85.6C110.6 81.7 117.8 74.2 117.8 60.3C117.8 43.5 107 31.7 91.6 31.7C76.2 31.7 65.4 43.5 65.4 60.3C65.4 71.5 70.3 80.6 79.3 86L79.2 86.4C77.9 87.7 74.8 89 71.5 90.3Z" />
		<path id="Layer" class="shp0" d="M96 0.9C43.6 0.9 0.9 43.5 0.9 96C0.9 111.6 4.7 127 12 140.6C13.3 143.1 16.4 144 18.9 142.7C21.4 141.4 22.3 138.3 21 135.8C14.5 123.6 11.1 109.8 11.1 96C11.1 49.2 49.2 11.1 96 11.1C142.8 11.1 180.9 49.2 180.9 96C180.9 142.8 142.8 180.9 96 180.9C78.5 180.9 61.7 175.6 47.4 165.6C45.1 164 41.9 164.6 40.3 166.9C38.7 169.2 39.3 172.4 41.6 174C57.6 185.2 76.4 191.1 96 191.1C148.4 191.1 191 148.5 191 96.1C191 43.7 148.4 0.9 96 0.9Z" />
	</g>
</svg>