<svg xmlns="http://www.w3.org/2000/svg" viewBox="0 0 197 222" width="197" height="222">
	<style>
		tspan { white-space:pre }
		.shp0 { fill: #ffffff } 
	</style>
	<g id="Layer">
		<path id="Layer" class="shp0" d="M125.7 130.5C127.3 128.9 129.4 128.1 131.7 128.1L131.7 128.1C136.1 128.1 139.7 131.3 140.1 135.5C140.2 136.5 141 137.3 142 137.3L143 137.3C143.6 137.3 144.1 137.1 144.5 136.7C144.9 136.3 145.1 135.7 145 135.2C144.4 128.5 138.5 123.3 131.7 123.2L131.7 123.2C128.1 123.2 124.8 124.6 122.2 127C119.7 129.5 118.3 132.8 118.3 136.3L118.3 143.7L116 143.7L116 143.7C111 143.7 107 147.7 107 152.7L107 170.6C107 173.9 108.8 176.9 111.7 178.5C112.9 179.2 114.4 179.6 116 179.6L147.5 179.6L147.5 179.6C149.9 179.6 152.2 178.7 153.9 177C155.6 175.3 156.5 173 156.6 170.6C156.6 169.9 156.3 169.3 155.9 168.9C155.4 168.4 154.8 168.2 154.2 168.2L154.2 168.2C152.8 168.2 151.7 169.3 151.7 170.7C151.7 171.8 151.3 172.8 150.5 173.6C149.7 174.4 148.7 174.8 147.6 174.8L147.6 174.8L116.1 174.8C115.4 174.8 114.8 174.7 114.3 174.4C112.8 173.7 112 172.3 112 170.7L112 152.9C112 151.8 112.3 150.8 113 150.1C113.8 149.1 114.9 148.6 116.1 148.6L116.1 148.6L147.6 148.6C148.3 148.6 149 148.8 149.5 149.1C150.9 149.9 151.7 151.2 151.7 152.7L151.7 160.8C151.7 161.5 152 162.1 152.4 162.5C152.9 163 153.5 163.2 154.1 163.2C154.8 163.2 155.4 162.9 155.8 162.5C156.3 162 156.5 161.4 156.5 160.8L156.5 152.7C156.5 149.4 154.8 146.5 151.9 144.8C150.6 144.1 149.1 143.7 147.5 143.7L123.3 143.7L123.3 136.3C123.3 134.1 124.2 132.1 125.7 130.5Z" />
		<path id="Layer" class="shp0" d="M129.4 169.7C129.8 170.1 130.4 170.3 131.1 170.3L132.5 170.3L132.5 170.3C133.9 170.3 134.8 169.4 134.8 168.1L134.8 163.5C135.7 162.7 136.2 161.5 136.2 160.3C136.2 159.1 135.8 158 134.9 157.2C134.1 156.4 133 155.9 131.8 155.9L131.8 155.9C130.6 155.9 129.6 156.3 128.7 157.2C127.9 158 127.4 159.1 127.4 160.3C127.4 161.5 127.9 162.7 128.8 163.5L128.8 168.1C128.8 168.8 129 169.3 129.4 169.7Z" />
		<path id="Layer" class="shp0" d="M74.5 116.3C67.3 119.1 57.5 123 52.5 133.7C50.5 138 50.6 142.9 52.7 147.2C54.9 151.6 59 154.6 63.7 155.5L72.9 157.3C80.1 158.7 87.5 159.4 94.8 159.4C96.8 159.4 98.8 159.3 100.8 159.2C101.4 159.2 101.9 158.8 102.1 158.2L103.3 154.2C103.4 153.8 103.3 153.3 103.1 152.9C102.8 152.5 102.4 152.4 101.9 152.4C92.7 153 83.4 152.4 74.3 150.6L65.1 148.8C62.4 148.3 60 146.5 58.8 144C57.6 141.6 57.5 138.8 58.6 136.4C62.5 128.2 70.2 125.1 76.9 122.4L76.8 122.1L76.8 122.1L77 122.4C81.7 120.5 85.8 118.9 88.1 115.8L88.6 115.2L89.7 109.4C89.8 108.8 89.5 108.2 89 107.9L87.7 107.2C82 104.3 75.3 98.3 75.3 86.2C75.3 73.3 83.3 64.3 94.8 64.3C106.3 64.3 114.3 73.3 114.3 86.2C114.3 95.7 110.1 102.9 102 107.1L100.7 107.8C100.2 108.1 99.9 108.7 100 109.3L101.1 115.4C101.1 115.6 101.3 115.9 101.4 116L101.7 116.4C104.1 119.2 108 120.8 112.5 122.5L112.6 122.5C113.9 123 115.3 123.6 116.6 124.2C117 124.4 117.4 124.4 117.8 124.2L122.2 121.9C122.7 121.7 123 121.2 123 120.7C123 120.2 122.7 119.7 122.2 119.5C119.7 118.2 117.2 117.2 115 116.4L114.9 116.7L114.9 116.7L114.9 116.7L114.9 116.7L115 116.4L115 116.4C112 115.2 109.2 114.1 107.6 112.8C107.5 112.7 107.4 112.5 107.3 112.4C107.2 112.1 107.4 111.8 107.6 111.6C113.6 107.7 120.8 100.2 120.8 86.3C120.8 69.5 110 57.7 94.6 57.7C79.2 57.7 68.4 69.5 68.4 86.3C68.4 97.5 73.3 106.6 82.3 112L82.2 112.4C80.9 113.7 77.8 115 74.5 116.3Z" />
		<path id="Layer" class="shp0" d="M99 26.9C46.6 26.9 3.9 69.5 3.9 122C3.9 137.6 7.7 153 15 166.6C16.3 169.1 19.4 170 21.9 168.7C24.4 167.4 25.3 164.3 24 161.8C17.5 149.6 14.1 135.8 14.1 122C14.1 75.2 52.2 37.1 99 37.1C145.8 37.1 183.9 75.2 183.9 122C183.9 168.8 145.8 206.9 99 206.9C81.5 206.9 64.7 201.6 50.4 191.6C48.1 190 44.9 190.6 43.3 192.9C41.7 195.2 42.3 198.4 44.6 200C60.6 211.2 79.4 217.1 99 217.1C151.4 217.1 194 174.5 194 122.1C194 69.7 151.4 26.9 99 26.9Z" />
	</g>
</svg>