<?xml version="1.0" encoding="utf-8"?>
<!-- Generator: Adobe Illustrator 25.0.0, SVG Export Plug-In . SVG Version: 6.00 Build 0)  -->
<svg version="1.1" id="Capa_1" xmlns="http://www.w3.org/2000/svg" xmlns:xlink="http://www.w3.org/1999/xlink" x="0px" y="0px"
	 viewBox="0 0 400 400" style="enable-background:new 0 0 400 400;" xml:space="preserve">
<style type="text/css">
	.st0{fill:#FFF;}
</style>
<g>
	<path class="st0" d="M226.7,208.5c1.6-1.6,3.7-2.4,6-2.4c0,0,0,0,0,0c4.4,0,8,3.2,8.4,7.4c0.1,1,0.9,1.8,1.9,1.8h1
		c0.6,0,1.1-0.2,1.5-0.6c0.4-0.4,0.6-1,0.5-1.5c-0.6-6.7-6.5-11.9-13.3-12c0,0,0,0,0,0c-3.6,0-6.9,1.4-9.5,3.8
		c-2.5,2.5-3.9,5.8-3.9,9.3l0,7.4l-2.3,0c0,0,0,0,0,0c-5,0-9,4-9,9l0,17.9c0,3.3,1.8,6.3,4.7,7.9c1.2,0.7,2.7,1.1,4.3,1.1l31.5,0
		c0,0,0,0,0,0c2.4,0,4.7-0.9,6.4-2.6c1.7-1.7,2.6-4,2.7-6.4c0-0.7-0.3-1.3-0.7-1.7c-0.5-0.5-1.1-0.7-1.7-0.7c0,0,0,0,0,0
		c-1.4,0-2.5,1.1-2.5,2.5c0,1.1-0.4,2.1-1.2,2.9c-0.8,0.8-1.8,1.2-2.9,1.2c0,0,0,0,0,0l-31.5,0c-0.7,0-1.3-0.1-1.8-0.4
		c-1.5-0.7-2.3-2.1-2.3-3.7l0-17.8c0-1.1,0.3-2.1,1-2.8c0.8-1,1.9-1.5,3.1-1.5c0,0,0,0,0,0l31.5,0c0.7,0,1.4,0.2,1.9,0.5
		c1.4,0.8,2.2,2.1,2.2,3.6l0,8.1c0,0.7,0.3,1.3,0.7,1.7c0.5,0.5,1.1,0.7,1.7,0.7c0.7,0,1.3-0.3,1.7-0.7c0.5-0.5,0.7-1.1,0.7-1.7
		l0-8.1c0-3.3-1.7-6.2-4.6-7.9c-1.3-0.7-2.8-1.1-4.4-1.1l-24.2,0l0-7.4C224.3,212.1,225.2,210.1,226.7,208.5z"/>
	<path class="st0" d="M230.4,247.7c0.4,0.4,1,0.6,1.7,0.6l1.4,0c0,0,0,0,0,0c1.4,0,2.3-0.9,2.3-2.2l0-4.6c0.9-0.8,1.4-2,1.4-3.2
		c0-1.2-0.4-2.3-1.3-3.1c-0.8-0.8-1.9-1.3-3.1-1.3c0,0,0,0,0,0c-1.2,0-2.2,0.4-3.1,1.3c-0.8,0.8-1.3,1.9-1.3,3.1
		c0,1.2,0.5,2.4,1.4,3.2l0,4.6C229.8,246.8,230,247.3,230.4,247.7z"/>
	<path class="st0" d="M175.5,194.3c-7.2,2.8-17,6.7-22,17.4c-2,4.3-1.9,9.2,0.2,13.5c2.2,4.4,6.3,7.4,11,8.3l9.2,1.8
		c7.2,1.4,14.6,2.1,21.9,2.1c2,0,4-0.1,6-0.2c0.6,0,1.1-0.4,1.3-1l1.2-4c0.1-0.4,0-0.9-0.2-1.3c-0.3-0.4-0.7-0.5-1.2-0.5
		c-9.2,0.6-18.5,0-27.6-1.8l-9.2-1.8c-2.7-0.5-5.1-2.3-6.3-4.8c-1.2-2.4-1.3-5.2-0.2-7.6c3.9-8.2,11.6-11.3,18.3-14l-0.1-0.3l0,0
		l0.2,0.3c4.7-1.9,8.8-3.5,11.1-6.6l0.5-0.6l1.1-5.8c0.1-0.6-0.2-1.2-0.7-1.5l-1.3-0.7c-5.7-2.9-12.4-8.9-12.4-21
		c0-12.9,8-21.9,19.5-21.9c11.5,0,19.5,9,19.5,21.9c0,9.5-4.2,16.7-12.3,20.9l-1.3,0.7c-0.5,0.3-0.8,0.9-0.7,1.5l1.1,6.1
		c0,0.2,0.2,0.5,0.3,0.6l0.3,0.4c2.4,2.8,6.3,4.4,10.8,6.1l0.1,0c1.3,0.5,2.7,1.1,4,1.7c0.4,0.2,0.8,0.2,1.2,0l4.4-2.3
		c0.5-0.2,0.8-0.7,0.8-1.2c0-0.5-0.3-1-0.8-1.2c-2.5-1.3-5-2.3-7.2-3.1l-0.1,0.3l0,0l0,0l0,0l0.1-0.3h0c-3-1.2-5.8-2.3-7.4-3.6
		c-0.1-0.1-0.2-0.3-0.3-0.4c-0.1-0.3,0.1-0.6,0.3-0.8c6-3.9,13.2-11.4,13.2-25.3c0-16.8-10.8-28.6-26.2-28.6
		c-15.4,0-26.2,11.8-26.2,28.6c0,11.2,4.9,20.3,13.9,25.7l-0.1,0.4C181.9,191.7,178.8,193,175.5,194.3z"/>
	<path class="st0" d="M200,104.9c-52.4,0-95.1,42.6-95.1,95.1c0,15.6,3.8,31,11.1,44.6c1.3,2.5,4.4,3.4,6.9,2.1
		c2.5-1.3,3.4-4.4,2.1-6.9c-6.5-12.2-9.9-26-9.9-39.8c0-46.8,38.1-84.9,84.9-84.9s84.9,38.1,84.9,84.9s-38.1,84.9-84.9,84.9
		c-17.5,0-34.3-5.3-48.6-15.3c-2.3-1.6-5.5-1-7.1,1.3c-1.6,2.3-1,5.5,1.3,7.1c16,11.2,34.8,17.1,54.4,17.1c52.4,0,95-42.6,95-95
		S252.4,104.9,200,104.9z"/>
</g>
</svg>
