<svg xmlns="http://www.w3.org/2000/svg" viewBox="0 0 236 221" width="236" height="221">
	<style>
		tspan { white-space:pre }
		.shp0 { fill: #ffffff } 
	</style>
	<g id="Layer">
		<g id="Layer">
			<path id="Layer" class="shp0" d="M28 113.2C25.1 113.2 22.8 110.9 22.8 108C22.8 55.6 65.4 13 117.8 13C134.6 13 151.2 17.5 165.6 25.9C179.6 34.1 191.4 45.8 199.7 59.8C201.2 62.3 200.3 65.5 197.8 67C195.3 68.5 192.1 67.6 190.6 65.1C175.4 39.4 147.5 23.5 117.7 23.5C71.1 23.5 33.2 61.4 33.2 108C33.3 110.9 30.9 113.2 28 113.2Z" />
		</g>
		<g id="Layer">
			<path id="Layer" class="shp0" d="M117.8 203C84.1 203 52.6 184.9 35.6 155.7C34.1 153.2 35 150 37.5 148.5C40 147 43.2 147.9 44.7 150.4C59.8 176.4 87.8 192.5 117.8 192.5C164.4 192.5 202.3 154.6 202.3 108C202.3 105.1 204.6 102.8 207.5 102.8C210.4 102.8 212.7 105.1 212.7 108C212.9 160.4 170.2 203 117.8 203Z" />
		</g>
		<g id="Layer">
			<g id="Layer">
				<g id="Layer">
					<path id="Layer" class="shp0" d="M180.9 166.2C180.5 164.2 179.9 162.4 179.1 160.7C171.9 145.6 157.9 140 147.6 135.9C143.3 134.2 139.3 132.6 137.1 130.8L137 130.3C146 124.6 156.4 113.7 156.4 93.5C156.4 69.1 140.8 52.1 118.4 52.1C96 52.1 80.4 69.1 80.4 93.5C80.4 109.5 87.4 122.6 100.1 130.5C98 132.4 93.8 134.1 89.3 135.9C79 140 64.9 145.6 57.6 161C56.8 162.6 56.3 164.3 55.9 166.1L55.8 166.6L56.1 167C59 170.4 62.2 173.5 65.5 176.3L68.7 179L67.1 175.1C65.8 171.9 65.8 168.6 67.2 165.6C72.6 154 83.5 149.7 93.1 145.9C99.9 143.2 105.8 140.9 109.3 136.2L109.9 135.4L112 124.8L108.4 123C100.4 119 91 110.6 91 93.6C91 75.5 102.2 62.9 118.3 62.9C134.4 62.9 145.6 75.5 145.6 93.6C145.6 106.9 139.7 117.1 128.4 122.9L124.9 124.7L127 135.9L127.9 137C131.5 141.1 137 143.4 143.5 145.9C153 149.7 163.8 154 169.2 165.3C170.7 168.4 170.7 171.9 169.3 175.2L167.6 179.1L170.9 176.4C174.3 173.6 177.5 170.5 180.4 167.1L180.7 166.7L180.9 166.2Z" />
				</g>
			</g>
			<g id="Layer">
				<path id="Layer" class="shp0" d="M229.2 122.4C228 122.4 226.8 122 225.9 121.1L206.9 103.3L188.6 121C186.7 122.9 183.6 122.8 181.7 120.9C179.8 119 179.9 115.9 181.8 114L203.5 93C205.4 91.2 208.3 91.2 210.2 92.9L232.6 113.9C234.6 115.7 234.7 118.8 232.8 120.8C231.8 121.9 230.5 122.4 229.2 122.4Z" />
			</g>
		</g>
		<g id="Layer">
			<path id="Layer" class="shp0" d="M29.1 121.7C27.9 121.7 26.7 121.3 25.8 120.4L3.4 99.4C1.4 97.6 1.3 94.5 3.2 92.5C5 90.5 8.1 90.4 10.1 92.3L29.1 110.1L47.4 92.4C49.3 90.5 52.4 90.6 54.3 92.5C56.2 94.4 56.1 97.5 54.2 99.4L32.5 120.4C31.6 121.2 30.3 121.7 29.1 121.7Z" />
		</g>
	</g>
</svg>